<svg xmlns="http://www.w3.org/2000/svg" x="0px" y="0px"
width="80" height="80"
viewBox="0 0 172 172"
style=" fill:#000000;"><g fill="none" fill-rule="nonzero" stroke="none" stroke-width="1" stroke-linecap="butt" stroke-linejoin="miter" stroke-miterlimit="10" stroke-dasharray="" stroke-dashoffset="0" font-family="none" font-weight="none" font-size="none" text-anchor="none" style="mix-blend-mode: normal"><path d="M0,172v-172h172v172z" fill="none"></path><g fill="#ef476f"><path d="M40.85,8.6c-5.9125,0 -10.75,4.8375 -10.75,10.75v120.4c0,5.9125 4.8375,10.75 10.75,10.75h92.45v-10.75h8.6v-124.7h-91.23223c-1.67129,-3.7793 -5.44219,-6.45 -9.81777,-6.45zM40.85,12.9c3.58613,0 6.45,2.86387 6.45,6.45h90.3v116.1h-86.93223c-1.67129,-3.7793 -5.44219,-6.45 -9.81777,-6.45c-2.46074,0 -4.63594,0.98262 -6.45,2.38516v-112.03516c0,-3.58613 2.86387,-6.45 6.45,-6.45zM49.45,21.5c-1.18418,0 -2.15,0.96582 -2.15,2.15c0,1.18418 0.96582,2.15 2.15,2.15c1.18418,0 2.15,-0.96582 2.15,-2.15c0,-1.18418 -0.96582,-2.15 -2.15,-2.15zM49.45,30.1c-1.18418,0 -2.15,0.96582 -2.15,2.15c0,1.18418 0.96582,2.15 2.15,2.15c1.18418,0 2.15,-0.96582 2.15,-2.15c0,-1.18418 -0.96582,-2.15 -2.15,-2.15zM64.5,34.4v4.3h60.2v-4.3zM49.45,38.7c-1.18418,0 -2.15,0.96582 -2.15,2.15c0,1.18418 0.96582,2.15 2.15,2.15c1.18418,0 2.15,-0.96582 2.15,-2.15c0,-1.18418 -0.96582,-2.15 -2.15,-2.15zM49.45,47.3c-1.18418,0 -2.15,0.96582 -2.15,2.15c0,1.18418 0.96582,2.15 2.15,2.15c1.18418,0 2.15,-0.96582 2.15,-2.15c0,-1.18418 -0.96582,-2.15 -2.15,-2.15zM64.5,51.6v25.8h36.55v-25.8zM107.5,51.6v4.3h17.2v-4.3zM49.45,55.9c-1.18418,0 -2.15,0.96582 -2.15,2.15c0,1.18418 0.96582,2.15 2.15,2.15c1.18418,0 2.15,-0.96582 2.15,-2.15c0,-1.18418 -0.96582,-2.15 -2.15,-2.15zM68.8,55.9h27.95v17.2h-27.95zM107.5,62.35v4.3h17.2v-4.3zM49.45,64.5c-1.18418,0 -2.15,0.96582 -2.15,2.15c0,1.18418 0.96582,2.15 2.15,2.15c1.18418,0 2.15,-0.96582 2.15,-2.15c0,-1.18418 -0.96582,-2.15 -2.15,-2.15zM49.45,73.1c-1.18418,0 -2.15,0.96582 -2.15,2.15c0,1.18418 0.96582,2.15 2.15,2.15c1.18418,0 2.15,-0.96582 2.15,-2.15c0,-1.18418 -0.96582,-2.15 -2.15,-2.15zM107.5,73.1v4.3h17.2v-4.3zM49.45,81.7c-1.18418,0 -2.15,0.96582 -2.15,2.15c0,1.18418 0.96582,2.15 2.15,2.15c1.18418,0 2.15,-0.96582 2.15,-2.15c0,-1.18418 -0.96582,-2.15 -2.15,-2.15zM64.5,83.85v4.3h60.2v-4.3zM49.45,90.3c-1.18418,0 -2.15,0.96582 -2.15,2.15c0,1.18418 0.96582,2.15 2.15,2.15c1.18418,0 2.15,-0.96582 2.15,-2.15c0,-1.18418 -0.96582,-2.15 -2.15,-2.15zM64.5,94.6v4.3h60.2v-4.3zM49.45,98.9c-1.18418,0 -2.15,0.96582 -2.15,2.15c0,1.18418 0.96582,2.15 2.15,2.15c1.18418,0 2.15,-0.96582 2.15,-2.15c0,-1.18418 -0.96582,-2.15 -2.15,-2.15zM64.5,105.35v4.3h21.5v-4.3zM92.45,105.35v15.05h32.25v-15.05zM49.45,107.5c-1.18418,0 -2.15,0.96582 -2.15,2.15c0,1.18418 0.96582,2.15 2.15,2.15c1.18418,0 2.15,-0.96582 2.15,-2.15c0,-1.18418 -0.96582,-2.15 -2.15,-2.15zM96.75,109.65h23.65v6.45h-23.65zM49.45,116.1c-1.18418,0 -2.15,0.96582 -2.15,2.15c0,1.18418 0.96582,2.15 2.15,2.15c1.18418,0 2.15,-0.96582 2.15,-2.15c0,-1.18418 -0.96582,-2.15 -2.15,-2.15zM64.5,116.1v4.3h21.5v-4.3zM49.45,124.7c-1.18418,0 -2.15,0.96582 -2.15,2.15c0,1.18418 0.96582,2.15 2.15,2.15c1.18418,0 2.15,-0.96582 2.15,-2.15c0,-1.18418 -0.96582,-2.15 -2.15,-2.15zM40.85,133.3c3.58613,0 6.45,2.86387 6.45,6.45h81.7v6.45h-88.15c-3.58613,0 -6.45,-2.86387 -6.45,-6.45c0,-3.58613 2.86387,-6.45 6.45,-6.45z"></path></g></g></svg>