<svg xmlns="http://www.w3.org/2000/svg" x="0px" y="0px"
width="100" height="100"
viewBox="0 0 172 172"
style=" fill:#000000;"><g fill="none" fill-rule="nonzero" stroke="none" stroke-width="1" stroke-linecap="butt" stroke-linejoin="miter" stroke-miterlimit="10" stroke-dasharray="" stroke-dashoffset="0" font-family="none" font-weight="none" font-size="none" text-anchor="none" style="mix-blend-mode: normal"><path d="M0,172v-172h172v172z" fill="none"></path><g fill="#ef476f"><path d="M86,29.24c-6.62914,0 -12.04,5.41086 -12.04,12.04c0,6.62914 5.41086,12.04 12.04,12.04c6.62914,0 12.04,-5.41086 12.04,-12.04c0,-6.62914 -5.41086,-12.04 -12.04,-12.04zM86,32.68c4.77002,0 8.6,3.82998 8.6,8.6c0,4.77002 -3.82998,8.6 -8.6,8.6c-4.77002,0 -8.6,-3.82998 -8.6,-8.6c0,-4.77002 3.82998,-8.6 8.6,-8.6zM34.4,39.56c-6.62914,0 -12.04,5.41086 -12.04,12.04c0,6.62914 5.41086,12.04 12.04,12.04c6.62914,0 12.04,-5.41086 12.04,-12.04c0,-6.62914 -5.41086,-12.04 -12.04,-12.04zM137.6,39.56c-6.62914,0 -12.04,5.41086 -12.04,12.04c0,6.62914 5.41086,12.04 12.04,12.04c6.62914,0 12.04,-5.41086 12.04,-12.04c0,-6.62914 -5.41086,-12.04 -12.04,-12.04zM34.4,43c4.77002,0 8.6,3.82998 8.6,8.6c0,4.77002 -3.82998,8.6 -8.6,8.6c-4.77002,0 -8.6,-3.82998 -8.6,-8.6c0,-4.77002 3.82998,-8.6 8.6,-8.6zM137.6,43c4.77002,0 8.6,3.82998 8.6,8.6c0,4.77002 -3.82998,8.6 -8.6,8.6c-4.77002,0 -8.6,-3.82998 -8.6,-8.6c0,-4.77002 3.82998,-8.6 8.6,-8.6zM86,56.76c-9.47949,0 -17.2,7.72051 -17.2,17.2v13.76h-12.04c-0.62029,-0.00877 -1.19726,0.31713 -1.50997,0.8529c-0.31271,0.53578 -0.31271,1.19842 0,1.7342c0.31271,0.53578 0.88967,0.86167 1.50997,0.8529h13.76h30.96h13.76c0.62029,0.00877 1.19726,-0.31713 1.50997,-0.8529c0.31271,-0.53578 0.31271,-1.19842 0,-1.7342c-0.31271,-0.53578 -0.88967,-0.86167 -1.50997,-0.8529h-12.04v-13.76c0,-9.47949 -7.72051,-17.2 -17.2,-17.2zM86,60.2c7.62075,0 13.76,6.13925 13.76,13.76v13.76h-27.52v-13.76c0,-7.62075 6.13925,-13.76 13.76,-13.76zM85.1232,63.68367c-0.02019,0.00041 -0.04036,0.00153 -0.06047,0.00336c-5.25655,0.47438 -9.38273,4.89925 -9.38273,10.27297v9.46c-0.00439,0.31015 0.15856,0.59863 0.42645,0.75498c0.26789,0.15635 0.59921,0.15635 0.8671,0c0.26789,-0.15635 0.43084,-0.44484 0.42645,-0.75498v-9.46c0,-4.49564 3.4315,-8.16383 7.81727,-8.55969c0.46205,-0.0408 0.80852,-0.44065 0.78314,-0.90381c-0.02538,-0.46316 -0.41346,-0.82276 -0.8772,-0.81283zM90.27984,64.69148c-0.39666,0.00541 -0.73817,0.28142 -0.82667,0.66812c-0.0885,0.3867 0.09896,0.78377 0.45378,0.96117c1.60768,0.82815 2.92543,2.13071 3.7457,3.73227c0.21707,0.42302 0.73597,0.58996 1.15899,0.37289c0.42302,-0.21707 0.58996,-0.73597 0.37289,-1.15899c-0.98917,-1.93133 -2.57317,-3.48652 -4.49148,-4.47469c-0.12713,-0.06766 -0.2692,-0.10231 -0.4132,-0.10078zM34.4,67.08c-7.57907,0 -13.76,6.18093 -13.76,13.76v23.22c0,7.10427 5.79573,12.9 12.9,12.9h18.705l2.80508,24.2782c0.10076,0.86792 0.83618,1.52242 1.70992,1.5218h8.6c0.94989,-0.00009 1.71991,-0.77011 1.72,-1.72v-33.54c0,-5.20399 -4.25601,-9.46 -9.46,-9.46h-9.46v-17.2c0,-7.57907 -6.18093,-13.76 -13.76,-13.76zM137.6,67.08c-7.57907,0 -13.76,6.18093 -13.76,13.76v17.2h-9.46c-5.20399,0 -9.46,4.25601 -9.46,9.46v33.54c0.00009,0.94989 0.77011,1.71991 1.72,1.72h8.6c0.87375,0.00062 1.60916,-0.65388 1.70992,-1.5218l2.80508,-24.2782h18.705c7.10427,0 12.9,-5.79573 12.9,-12.9v-23.22c0,-7.57907 -6.18093,-13.76 -13.76,-13.76zM34.4,70.52c5.71997,0 10.32,4.60003 10.32,10.32v18.92h-4.3c-3.33464,0 -6.02,-2.68536 -6.02,-6.02v-6.88c0.00364,-0.23275 -0.08721,-0.45703 -0.25181,-0.62163c-0.1646,-0.1646 -0.38888,-0.25545 -0.62163,-0.25181c-0.22809,0.00356 -0.44542,0.09758 -0.60418,0.26138c-0.15876,0.1638 -0.24595,0.38397 -0.24238,0.61205v6.88c0,4.26432 3.47568,7.74 7.74,7.74h6.88h10.32c3.34441,0 6.02,2.67559 6.02,6.02v31.82h-5.34813l-2.80508,-24.2782c-0.10061,-0.86665 -0.8341,-1.52072 -1.70656,-1.5218h-20.24023c-5.24533,0 -9.46,-4.21467 -9.46,-9.46v-23.22c0,-5.71997 4.60003,-10.32 10.32,-10.32zM137.6,70.52c5.71997,0 10.32,4.60003 10.32,10.32v23.22c0,5.24533 -4.21467,9.46 -9.46,9.46h-20.24023c-0.87247,0.00108 -1.60595,0.65515 -1.70656,1.5218l-2.80508,24.2782h-5.34812v-31.82c0,-3.34441 2.67559,-6.02 6.02,-6.02h11.18h6.02c4.26432,0 7.74,-3.47568 7.74,-7.74v-6.88c0.00364,-0.23275 -0.08721,-0.45703 -0.25181,-0.62163c-0.1646,-0.1646 -0.38888,-0.25545 -0.62163,-0.25181c-0.22809,0.00356 -0.44542,0.09758 -0.60418,0.26138c-0.15876,0.1638 -0.24595,0.38397 -0.24238,0.61205v6.88c0,3.33464 -2.68536,6.02 -6.02,6.02h-4.3v-18.92c0,-5.71997 4.60003,-10.32 10.32,-10.32zM95.40961,72.22656c-0.24294,0.00152 -0.47391,0.10571 -0.63583,0.28683c-0.16192,0.18112 -0.23969,0.42227 -0.21409,0.66387c0.02421,0.26633 0.04031,0.52598 0.04031,0.78273v0.86c-0.00439,0.31015 0.15856,0.59863 0.42645,0.75498c0.26789,0.15635 0.59921,0.15635 0.8671,0c0.26789,-0.15635 0.43084,-0.44484 0.42645,-0.75498v-0.86c0,-0.32461 -0.01965,-0.63599 -0.04703,-0.93727c-0.03361,-0.45115 -0.41097,-0.79914 -0.86336,-0.79617zM33.52656,79.10656c-0.22809,0.00356 -0.44542,0.09758 -0.60418,0.26138c-0.15876,0.1638 -0.24595,0.38397 -0.24238,0.61205v3.44c-0.00439,0.31015 0.15856,0.59863 0.42645,0.75498c0.26789,0.15635 0.59921,0.15635 0.8671,0c0.26789,-0.15635 0.43084,-0.44484 0.42645,-0.75498v-3.44c0.00364,-0.23275 -0.08721,-0.45703 -0.25181,-0.62163c-0.1646,-0.1646 -0.38888,-0.25545 -0.62163,-0.25181zM138.44656,79.10656c-0.22809,0.00356 -0.44542,0.09758 -0.60418,0.26138c-0.15876,0.1638 -0.24595,0.38397 -0.24238,0.61205v3.44c-0.00439,0.31015 0.15856,0.59863 0.42645,0.75498c0.26789,0.15635 0.59921,0.15635 0.8671,0c0.26789,-0.15635 0.43084,-0.44484 0.42645,-0.75498v-3.44c0.00364,-0.23275 -0.08721,-0.45703 -0.25181,-0.62163c-0.1646,-0.1646 -0.38888,-0.25545 -0.62163,-0.25181zM15.45313,80.81648c-0.94861,0.01483 -1.70612,0.79488 -1.69313,1.74352v22.36c0,10.42906 8.49094,18.92 18.92,18.92h10.32c0.62029,0.00877 1.19726,-0.31713 1.50997,-0.8529c0.31271,-0.53578 0.31271,-1.19842 0,-1.7342c-0.31271,-0.53578 -0.88967,-0.86167 -1.50997,-0.8529h-10.32c-8.57006,0 -15.48,-6.90994 -15.48,-15.48v-22.36c0.00637,-0.46492 -0.17574,-0.91261 -0.50484,-1.24107c-0.32909,-0.32846 -0.77713,-0.50971 -1.24204,-0.50245zM156.49313,80.81648c-0.94861,0.01483 -1.70612,0.79488 -1.69312,1.74352v22.36c0,8.57006 -6.90994,15.48 -15.48,15.48h-10.32c-0.62029,-0.00877 -1.19726,0.31713 -1.50997,0.8529c-0.31271,0.53578 -0.31271,1.19842 0,1.7342c0.31271,0.53578 0.88967,0.86167 1.50997,0.8529h10.32c10.42906,0 18.92,-8.49094 18.92,-18.92v-22.36c0.00637,-0.46492 -0.17574,-0.91261 -0.50484,-1.24107c-0.32909,-0.32846 -0.77713,-0.50971 -1.24204,-0.50245z"></path></g></g></svg>