<svg xmlns="http://www.w3.org/2000/svg" x="0px" y="0px"
width="48" height="48"
viewBox="0 0 172 172"
style=" fill:#000000;"><g transform=""><g fill="none" fill-rule="nonzero" stroke="none" stroke-width="1" stroke-linecap="butt" stroke-linejoin="miter" stroke-miterlimit="10" stroke-dasharray="" stroke-dashoffset="0" font-family="none" font-weight="none" font-size="none" text-anchor="none" style="mix-blend-mode: normal"><path d="M0,172v-172h172v172z" fill="none"></path><path d="M0,172v-172h172v172z" fill="#ffd166"></path><g fill="#ffffff"><path d="M31.175,31.175v24.36667h24.36667v-24.36667zM73.81667,31.175v24.36667h24.36667v-24.36667zM116.45833,31.175v24.36667h24.36667v-24.36667zM31.175,73.81667v24.36667h24.36667v-24.36667zM73.81667,73.81667v24.36667h24.36667v-24.36667zM116.45833,73.81667v24.36667h24.36667v-24.36667zM31.175,116.45833v24.36667h24.36667v-24.36667zM73.81667,116.45833v24.36667h24.36667v-24.36667zM116.45833,116.45833v24.36667h24.36667v-24.36667z"></path></g><path d="M0,172v-172h172v172z" fill="none"></path><path d="M3.44,168.56v-165.12h165.12v165.12z" fill="none"></path><path d="" fill="none"></path><path d="M0,172v-172h172v172z" fill="none"></path><path d="M3.44,168.56v-165.12h165.12v165.12z" fill="none"></path></g></g></svg>