<svg xmlns="http://www.w3.org/2000/svg" x="0px" y="0px"
width="50" height="50"
viewBox="0 0 172 172"
style=" fill:#000000;"><g fill="none" fill-rule="nonzero" stroke="none" stroke-width="1" stroke-linecap="butt" stroke-linejoin="miter" stroke-miterlimit="10" stroke-dasharray="" stroke-dashoffset="0" font-family="none" font-weight="none" font-size="none" text-anchor="none" style="mix-blend-mode: normal"><path d="M0,172v-172h172v172z" fill="none"></path><g fill="#ef476f"><path d="M20.64,6.88c-11.35469,0 -20.64,9.28531 -20.64,20.64v99.76c0,11.35469 9.28531,20.64 20.64,20.64h151.36v-123.84h-131.41875c-1.70656,-9.66156 -9.79594,-17.2 -19.94125,-17.2zM20.64,13.76c7.6325,0 13.76,6.1275 13.76,13.76v84.44125c-3.655,-3.29219 -8.47906,-5.32125 -13.76,-5.32125c-5.28094,0 -10.105,2.02906 -13.76,5.32125v-84.44125c0,-7.6325 6.1275,-13.76 13.76,-13.76zM41.28,30.96h123.84v110.08h-144.48c-7.6325,0 -13.76,-6.1275 -13.76,-13.76c0,-7.6325 6.1275,-13.76 13.76,-13.76c7.6325,0 13.76,6.1275 13.76,13.76h6.88zM120.4,51.6l9.60781,9.60781l-18.20781,18.20781l-18.75875,-18.77219l-29.93875,26.21656l4.515,5.16l25.10125,-21.94344l19.08125,19.06781l23.07219,-23.07219l9.60781,9.60781v-24.08zM58.48,110.08v6.88h86v-6.88z"></path></g></g></svg>