<?xml version="1.0" encoding="utf-8"?>
<!-- Generator: Adobe Illustrator 23.0.1, SVG Export Plug-In . SVG Version: 6.00 Build 0)  -->
<svg version="1.1" id="Layer_1" xmlns="http://www.w3.org/2000/svg" xmlns:xlink="http://www.w3.org/1999/xlink" x="0px" y="0px"
	width="40px" height="40px"
	 viewBox="0 0 216 216" style="enable-background:new 0 0 216 216;" xml:space="preserve">
<style type="text/css">
	.st0{fill:#EF476F;}
</style>
<g>
	<path class="st0" d="M61.35,163.14l-7.2,8.55l-2.24-1.95l7.45-8.3c-1.18-1.09-2.08-2.08-3.22-3.09l1.66-1.66
		c2.84,2.68,5.33,4.76,8.46,7.28l-1.44,1.83C63.68,164.9,62.5,164.04,61.35,163.14 M46.92,141.88l-11.68,6.82
		c0.42,0.82,0.87,1.78,1.38,2.57l11.71-6.84C47.75,143.4,47.43,142.85,46.92,141.88 M54.42,152.78l-6.33,5.47l3.23-9.38
		c-0.57-0.8-0.83-1.36-1.43-2.1l-11.35,7.7c0.51,0.76,1.13,1.46,1.67,2.25l6.82-4.73l-3.2,9.45c0.55,0.62,1.11,1.58,1.9,2.21l10.5-9
		C55.64,154.04,54.93,153.48,54.42,152.78 M69.82,169.54c1.84,1,3.64,2.05,5.66,3l1.21-2c-2.79-1.44-5.41-3.09-7.76-4.72l-7.7,11.3
		c2.92,1.93,5.59,3.55,8.59,5.28l1.24-2l-6.21-3.66l2.1-2.95l4.11,2.47l1.2-1.92c-1.32-0.73-2.7-1.56-4.14-2.45L69.82,169.54z
		 M107.91,127.41c-10.64,0-19.34-8.73-19.34-19.35c0-10.69,8.69-19.38,19.34-19.38c10.71,0,19.33,8.69,19.33,19.38
		C127.23,118.72,118.57,127.41,107.91,127.41 M108.15,121.01c7.06,0,12.87-5.8,12.87-12.87c0-5.87-4.08-10.98-9.71-12.38
		c-0.07-0.58-0.23-3.26-0.23-3.26h-6.49c0,0-0.15,2.92-0.2,3.5c-5.39,1.63-9.02,6.55-9.02,12.15
		C95.37,115.21,101.17,121.01,108.15,121.01 M79.72,34.97v-0.64c-0.07-3.5,2.61-6.38,6.14-6.67c3.73-0.36,7.04,2.38,7.35,6.12v0.54
		c0,3.5-2.64,6.49-6.23,6.82C83.36,41.47,80.04,38.75,79.72,34.97 M82.2,34.74c0.18,2.41,2.32,4.17,4.64,3.97
		c2.29-0.24,4-2.06,4-4.36c0.08-0.11,0-0.25,0-0.4c-0.2-2.42-2.28-4.12-4.7-3.89c-2.29,0.17-4.02,1.99-3.94,4.29V34.74z
		 M110.37,38.08c-1.14-0.01-1.66-0.01-2.77-0.01l3.37-7l3.06-6.36l3.04,0.31l1.59,6.04l2.2,8.12c-1.02-0.19-1.81-0.34-2.78-0.4
		l-0.79-2.55c-2-0.31-3.81-0.41-5.67-0.49L110.37,38.08z M112.62,33.48c1.48,0.07,2.85,0.23,4.23,0.43l-0.73-2.83l-0.91-2.92
		l-1.37,2.92L112.62,33.48z M99.14,27.44l1.2,11.08l2.91-0.31l-1.14-11l4.4-0.27l-0.17-2.47c-4.91,0.28-6.94,0.48-11.8,1.21
		l0.33,2.34L99.14,27.44z M99.6,177.42l-0.99,8.27l-3.97-9.07c-0.93-0.18-1.51-0.42-2.45-0.57l-3.12,13.37
		c0.96,0.26,1.89,0.36,2.88,0.53l1.67-8.21l4.03,9.15c0.91,0.14,1.95,0.42,3.01,0.4l1.49-13.81
		C101.37,177.43,100.44,177.56,99.6,177.42 M178.14,148.71l-9.93-5.47l-1.27,2.29l11.92,6.65l4.59-8.23l-2.05-1.1L178.14,148.71z
		 M163.17,150.71l13.52,4.44c-0.32,0.4-0.57,0.79-0.86,1.19c-0.23,0.3-0.52,0.61-0.7,1.01l-2.37-0.85l-3.69,4.61l1.35,2.11
		c-0.55,0.63-1.17,1.31-1.88,2l-5.36-8.88l-1.98-3.27L163.17,150.71z M164.7,153.8l1.6,2.53l1.47,2.55l1.98-2.55l0.52-0.64
		L164.7,153.8z M150.49,171.88c0.58,1.01,0.86,2.19,0.91,3.38c0,0.93-0.2,1.89-0.59,2.76c-0.63,1.26-1.57,2.39-2.87,3.14
		c-3.18,1.85-7.28,0.75-9.21-2.52c-0.07-0.19-0.15-0.39-0.28-0.62c-0.39-0.87-0.57-1.83-0.66-2.76c0.08-2.41,1.25-4.63,3.41-5.87
		C144.43,167.56,148.59,168.65,150.49,171.88 M148.96,175.26c0-0.81-0.21-1.54-0.59-2.24c-1.13-2.1-3.8-2.77-5.88-1.58
		c-1.47,0.79-2.22,2.28-2.22,3.82c0.05,0.7,0.22,1.49,0.63,2.16c0.12,0.21,0.26,0.42,0.47,0.65c1.31,1.56,3.61,1.92,5.39,0.89
		c0.49-0.24,0.88-0.56,1.19-0.89C148.59,177.29,148.96,176.23,148.96,175.26 M155.49,159.1l5.63,6.07l-9.44-2.79
		c-0.79,0.6-1.31,0.81-2.01,1.41l8.22,11.05c0.7-0.55,1.43-1.21,2.08-1.77l-4.99-6.65l9.54,2.87c0.66-0.57,1.59-1.21,2.24-2.02
		l-9.51-10.06C156.73,157.77,156.15,158.5,155.49,159.1 M216,108.14c0,1.26-0.06,2.52-0.2,3.53l-0.04,0.27l-0.29,0.15
		c-4.59,2.73-10.52,4.29-16.48,4.45c-0.14,0.75-0.79,6.13-0.9,6.89c5.55,1.6,10.93,4.63,14.68,8.51l0.15,0.24v0.25
		c-0.29,2.12-1.04,4.95-1.87,6.8l-0.09,0.29l-0.27,0.04c-5.2,1.5-11.33,1.44-17.01,0.04c-0.27,0.7-2.37,5.7-2.58,6.43
		c4.97,3.14,9.36,7.46,11.84,12.07l0.13,0.26l-0.08,0.27c-0.77,1.83-2.23,4.49-3.53,6.08l-0.14,0.24H199
		c-5.31,0.06-11.24-1.51-16.42-4.4c-0.47,0.62-3.93,5.19-4.4,5.8c4.08,4.2,7.17,9.53,8.43,14.78l0.08,0.27l-0.15,0.19
		c-1.18,1.61-3.36,3.74-4.94,5.02l-0.19,0.16l-0.39-0.08c-5.11-1.36-10.51-4.45-14.71-8.51c-0.62,0.47-4.91,3.82-5.54,4.29
		c2.74,5.03,4.41,10.81,4.41,16.03v0.73l-0.32,0.18c-1.58,1.27-4.21,2.8-6.08,3.56l-0.19,0.08l-0.31-0.1
		c-4.6-2.68-9.01-7.05-12.02-12.05c-0.73,0.32-5.94,2.55-6.65,2.87c0.71,2.79,1.13,5.71,1.22,8.59c0,2.91-0.5,5.82-1.22,8.46
		l-0.04,0.26l-0.28,0.15c-1.74,0.73-4.69,1.46-6.74,1.81l-0.32,0.04l-0.18-0.22c-3.96-3.77-6.99-9.13-8.59-14.73
		c-0.71,0.05-6.11,0.79-6.87,0.94c-0.09,5.87-1.71,11.83-4.5,16.44l-0.15,0.24l-0.32,0.04c-1.88,0.28-4.88,0.28-6.93,0l-0.25-0.04
		l-0.18-0.24c-2.7-4.61-4.32-10.57-4.45-16.44c-0.81-0.08-6.5-0.89-7.29-0.94c-1.56,5.56-4.62,10.89-8.47,14.71l-0.21,0.2
		l-0.32-0.05c-2.11-0.31-4.89-1.13-6.75-1.9l-0.22-0.11l-0.09-0.24c-0.79-2.62-1.19-5.56-1.19-8.48c0-2.86,0.4-5.72,1.13-8.51
		c-0.73-0.31-5.65-2.31-6.36-2.63c-3.04,5.09-7.44,9.52-12.08,12.1l-0.25,0.14l-0.3-0.08c-1.92-0.86-4.45-2.31-6.09-3.54l-0.2-0.2
		v-0.55c0-5.29,1.61-11.11,4.37-16.2c-0.61-0.47-5.2-3.96-5.83-4.44c-4.21,4.06-9.57,7.11-14.74,8.44l-0.27,0.08l-0.28-0.18
		c-1.58-1.28-3.62-3.33-4.9-4.95l-0.17-0.28l0.08-0.27c1.38-5.22,4.48-10.55,8.51-14.69c-0.46-0.63-3.94-5.13-4.43-5.81
		c-5.12,2.87-11.11,4.53-16.42,4.39h-0.28l-0.18-0.18c-1.24-1.64-2.73-4.27-3.53-6.13l-0.12-0.28l0.12-0.25
		c2.67-4.68,7.04-9,12.03-12c-0.32-0.77-2.45-5.8-2.81-6.51c-5.67,1.41-11.84,1.45-17.03,0l-0.25-0.08l-0.15-0.23
		c-0.7-1.75-1.47-4.69-1.79-6.77l-0.06-0.33l0.19-0.24c3.77-3.85,9.08-6.89,14.76-8.57c-0.06-0.79-0.9-6.51-0.98-7.3
		c-5.92-0.08-11.88-1.61-16.51-4.36l-0.23-0.15l-0.02-0.32C0.04,110.43,0,109.17,0,107.9c0-1.24,0.04-2.46,0.17-3.5l0.02-0.32
		l0.23-0.13c4.63-2.73,10.59-4.31,16.51-4.4c0.12-0.78,0.83-6.34,0.92-7.09c-5.61-1.61-10.97-4.68-14.78-8.52l-0.16-0.19l0.05-0.3
		c0.25-2.14,1.05-5,1.85-6.77l0.09-0.26l0.28-0.08c5.12-1.51,11.32-1.47,17.02-0.07c0.32-0.69,2.39-5.71,2.71-6.46
		c-5.03-3.04-9.44-7.37-12.07-12.04l-0.13-0.3l0.13-0.28c0.83-1.88,2.31-4.42,3.48-6.01l0.19-0.24h0.32
		c5.38-0.08,11.3,1.56,16.42,4.4c0.48-0.57,3.97-5.29,4.44-5.92c-4.06-4.23-7.13-9.53-8.46-14.78l-0.06-0.23l0.11-0.23
		c1.3-1.63,3.45-3.74,5.03-4.99l0.25-0.16l0.24,0.05c5.28,1.35,10.61,4.49,14.76,8.53c0.6-0.48,4.76-3.68,5.37-4.15
		c-2.86-5-4.45-10.83-4.45-16.01v-0.78l0.26-0.18c1.56-1.22,4.19-2.73,6.07-3.49l0.2-0.13l0.31,0.14c4.63,2.62,8.98,7,12.02,12.01
		c0.73-0.27,6.13-2.62,6.87-2.92c-0.71-2.79-1.15-5.69-1.1-8.56c0-2.98,0.36-5.82,1.15-8.44l0.04-0.33l0.28-0.07
		c1.74-0.73,4.65-1.51,6.69-1.83l0.33-0.04l0.24,0.21c3.85,3.75,6.92,9.11,8.54,14.77c0.79-0.08,6.47-0.8,7.23-0.93
		c0.12-5.83,1.72-11.78,4.5-16.4l0.12-0.24l0.29-0.08c2.03-0.24,5.03-0.24,7,0l0.26,0.08l0.16,0.24c2.8,4.62,4.42,10.58,4.42,16.35
		c0.85,0.19,6.4,0.91,7.19,0.99c1.66-5.66,4.71-10.98,8.58-14.75l0.18-0.19l0.26,0.08c2.11,0.23,4.97,1.02,6.81,1.82l0.23,0.09
		l0.09,0.32c0.79,2.59,1.17,5.42,1.17,8.36c-0.05,2.9-0.47,5.82-1.17,8.62c0.7,0.29,6.09,2.54,6.84,2.86
		c2.99-5.01,7.29-9.36,11.97-12.01l0.27-0.14l0.28,0.13c1.85,0.79,4.44,2.28,6.04,3.53l0.24,0.15v0.73c0,5.31-1.65,11.12-4.42,16.06
		c0.6,0.47,5.05,3.95,5.72,4.46c4.2-4.08,9.53-7.19,14.78-8.48l0.23-0.13l0.23,0.25c1.58,1.17,3.72,3.39,4.92,4.98l0.22,0.23
		l-0.09,0.27c-1.34,5.25-4.5,10.58-8.53,14.76c0.47,0.64,3.82,5.06,4.34,5.69c5.23-2.81,11.13-4.42,16.49-4.32h0.25l0.18,0.24
		c1.3,1.66,2.79,4.24,3.52,6.01l0.18,0.34l-0.18,0.26c-2.66,4.64-7.03,8.93-12.05,11.99c0.3,0.76,2.34,5.79,2.73,6.5
		c5.62-1.42,11.81-1.45,16.93,0l0.3,0.06l0.12,0.29c0.71,1.78,1.55,4.67,1.82,6.8l0.04,0.26l-0.21,0.21
		c-3.76,3.9-9.12,6.95-14.75,8.54c0.11,0.78,0.81,6.27,0.95,7.05c5.93,0.13,11.84,1.71,16.43,4.43l0.29,0.17l0.04,0.28
		C215.94,105.63,216,106.84,216,108.14 M53.72,45.12L62.59,55c1.24,1.33,2.6,1.17,4.4-0.23c11.21-8.79,25.59-14,40.92-14
		c15.34,0,29.74,5.18,41.06,14c1.77,1.31,3.1,1.57,4.39,0.23l8.88-9.88c1.01-1.09,1.01-2.6-0.92-4.21
		c-14.88-11.59-33.25-18.74-53.44-18.74c-20.07,0-38.71,7.15-53.32,18.79C52.64,42.52,52.72,44.03,53.72,45.12 M54.32,86.68
		c-0.98-0.63-2.02-1.36-2.87-0.98c-0.69,0.21-1.2,0.94-1.56,2.12c-4.16,14.28-4.16,26.38,0,40.47c0.28,0.92,0.6,1.83,1.43,2.06
		c0.68,0.28,1.69,0,3-0.91l27.47-18.71c1.02-0.69,1.64-1.66,1.64-2.64c0-1.06-0.62-2-1.64-2.71L54.32,86.68z M60.33,70.31
		c0.13,1,1.27,1.51,2.26,1.98l29.93,14.54c1.19,0.57,2.3,0.57,3.2,0.1c0.84-0.55,1.39-1.51,1.46-2.78l2.42-33.2
		c0.13-1.6-0.09-2.54-0.67-3.04c-0.63-0.55-1.57-0.39-2.47-0.23c-14.35,3.45-24.8,9.51-35.1,20.26
		C60.52,68.88,60.14,69.67,60.33,70.31 M60.76,146.23c0,0.57,0.39,1.28,1.11,2.03c10.31,10.84,20.74,16.87,35.08,20.24
		c0.92,0.28,1.82,0.42,2.45-0.08c0.65-0.48,0.83-1.48,0.72-3.05c0-0.05-2.44-33.27-2.44-33.27c-0.1-1.26-0.58-2.22-1.46-2.73
		c-0.89-0.52-2.01-0.52-3.2,0.02l-29.9,14.55c-1.04,0.49-2.17,1.03-2.33,2.01C60.79,146.02,60.76,146.15,60.76,146.23 M107.91,129.5
		c11.84,0,21.46-9.61,21.46-21.44c0-11.83-9.62-21.45-21.46-21.5c-11.83,0-21.44,9.66-21.44,21.5
		C86.46,119.89,96.08,129.5,107.91,129.5 M116.98,167.94c0.51,0.4,1.34,0.52,2.62,0.2c14.3-3.43,24.79-9.49,35-20.21
		c0.61-0.71,1.28-1.43,1.08-2.24c-0.19-0.77-0.84-1.47-2.24-2.13L123.46,129c-1.14-0.54-2.24-0.54-3.16-0.06
		c-0.88,0.56-1.42,1.5-1.5,2.82l-2.42,33.18C116.36,166.03,116.23,167.27,116.98,167.94 M161.68,129.26
		c0.89,0.58,1.92,1.28,2.86,0.95c0.64-0.19,1.18-0.89,1.54-2.15c4.2-14.23,4.2-26.38,0-40.43c-0.26-0.88-0.67-1.79-1.41-2.12
		c-0.75-0.27-1.69,0.04-3.03,0.95l-27.49,18.69c-1.06,0.72-1.61,1.69-1.61,2.7c0,1,0.54,1.98,1.61,2.68L161.68,129.26z
		 M155.62,69.78c0.04-0.57-0.31-1.29-1.11-2.07c-10.21-10.8-20.7-16.84-35.08-20.26c-0.81-0.21-1.74-0.4-2.37,0.15
		c-0.64,0.52-0.83,1.51-0.7,3l2.37,33.28c0.08,1.26,0.64,2.26,1.49,2.77c0.92,0.52,2.03,0.43,3.17-0.13l29.97-14.46
		c0.96-0.47,2.05-0.97,2.26-2C155.62,69.99,155.65,69.91,155.62,69.78 M27.66,129.17l12.75-3.7c1.2-0.35,2.18-1.61,2.09-3.16
		c-4.58-23.76,1.24-43.02,15.16-58.45c1.41-1,1.56-3.06,0.21-4.47l-9.27-9.32c-0.9-1.03-2.54-1.03-3.94,0.4
		c-17.77,18.7-26.74,47.41-20.16,76.76C24.86,128.62,25.97,129.65,27.66,129.17 M186.22,136l-12.79-4.37
		c-0.67-0.25-2.41-0.25-3.33,2c-10.33,24.76-34.36,41.71-62.2,41.71c-27.87,0-52.35-17.34-62.23-42.1
		c-0.74-1.86-2.53-1.86-3.21-1.61L29.75,136c-1.38,0.5-2.21,1.72-1.49,3.49c12.49,31.88,43.55,54.38,79.65,54.38
		c36.09,0,67.29-22.66,79.82-54.51C188.38,137.68,187.59,136.49,186.22,136 M171.44,50.33c-1.25-1.53-3.33-1.31-3.93-0.24
		l-9.24,9.28c-1.35,1.41-1.22,3.47,0.18,4.47c13.95,15.44,19.77,34.66,15.2,58.45c-0.1,1.56,0.88,2.81,2.1,3.16l12.78,3.7
		c1.7,0.48,2.79-0.55,3.15-2.01C198.26,97.87,189.26,69.06,171.44,50.33 M141.67,46.86l2.94-5.66l7.94-3.69
		c-0.84-0.6-1.74-1.02-2.58-1.57l-5.47,2.49l-1.01-5.94c-1.14-0.54-1.83-0.78-3.02-1.26l1.59,8.63l-2.94,5.6L141.67,46.86z
		 M126.8,175.36c-3.96,0.87-7.01,1.59-10.93,2.2l0.36,2.28c1.45-0.23,2.78-0.4,4.31-0.6l1.98,10.98l2.92-0.55l-2.36-10.95
		c1.5-0.37,2.88-0.75,4.37-1.1L126.8,175.36z M87.9,177.29v0.74c-0.21,1.81-1.44,3.66-3.43,3.89l0.46,6.33
		c-0.93-0.21-1.97-0.52-2.96-0.94l-0.11-5.96l-2.68-1.15l-2.17,5.26c-0.88-0.29-1.75-0.57-2.61-0.99l2.75-6.4l0.33-0.79l2.24-5.28
		l6.1,2.35C87.17,174.84,87.8,176.05,87.9,177.29 M85.35,177.29c-0.08-0.38-0.23-0.69-0.7-0.9l-3.41-1.26l-0.77,2.16l-0.27,0.79
		l-0.02,0.05l3.11,1.16c0.85,0.38,1.68-0.38,1.97-1.21C85.35,177.85,85.43,177.56,85.35,177.29 M126.72,40.58
		c-1.09-0.32-1.9-0.45-3.09-0.79l2.21-7.53l1.61-5.37c2.33,0.58,4.54,1.33,6.76,2.06c1.25,0.39,1.93,1.8,2.05,3.32
		c0.08,2.05-0.94,4.28-3.01,4.75l0.81,6.07c-0.97-0.4-1.69-0.7-2.77-1.13l-0.7-5.31l-2.6-0.8L126.72,40.58z M128.58,33.48l3.04,0.98
		c0.83,0.24,1.93-1.07,1.93-2.2c0-0.54-0.19-1.02-0.91-1.18c-1.13-0.43-1.9-0.63-3.12-0.94l-0.63,2.12L128.58,33.48z M113.8,183.75
		l2.94,7.14c-0.96,0.04-1.86,0.14-2.72,0.24l-0.91-2.31l-5.89,0.16l-0.67,2.41c-0.94-0.08-1.82-0.11-2.75-0.11l2.54-7.54l1.81-5.72
		l0.09-0.18l3-0.13l0.15,0.36L113.8,183.75z M112.02,186.35l-1.05-2.6l-1.07-2.81l-0.93,2.81l-0.91,2.77L112.02,186.35z
		 M130.02,174.21l4.5,12.86c0.88-0.3,1.82-0.57,2.7-0.96l-4.37-12.8C131.66,173.72,131.11,173.89,130.02,174.21 M64.67,38.63
		l-0.75-1.35c1.98-1.26,4.11-2.35,6.16-3.44c2.42-1.33,5.83,1.9,5.59,4.8c-0.04,0.51-0.19,0.98-0.49,1.45l4.94,3.6
		c-0.93,0.44-1.64,0.81-2.75,1.29l-4.33-3.16l-2.39,1.28l2.54,4.21c-0.98,0.63-1.58,1.02-2.73,1.69L64.67,38.63z M67.65,37.99
		l0.38,0.64l1.38,2.38l2.86-1.5c0.27-0.13,0.42-0.47,0.47-0.88c0.06-1.29-0.88-3.04-2.23-2.22C69.44,36.96,68.8,37.34,67.65,37.99"
		/>
</g>
</svg>
