<?xml version="1.0" encoding="UTF-8"?>
<svg xmlns="http://www.w3.org/2000/svg" xmlns:xlink="http://www.w3.org/1999/xlink" viewBox="0 0 250 250" width="250px" height="250px">
<g id="surface107257300">
<path style=" stroke:none;fill-rule:nonzero;fill:#ffba08;fill-opacity:1;" d="M 49.0625 0 C 48.75 0.078125 48.417969 0.175781 48.125 0.3125 C 48.125 0.3125 44.277344 2.070312 41.09375 6.25 C 37.910156 10.429688 35 17.1875 35 27.34375 C 35 44.746094 45.097656 58.417969 56.875 67.65625 C 61.289062 71.113281 65.878906 74.042969 70.46875 76.40625 C 67.8125 76.152344 65.175781 75.644531 62.5 74.375 C 60.898438 73.671875 59.0625 73.828125 57.617188 74.824219 C 56.191406 75.820312 55.371094 77.480469 55.46875 79.21875 C 56.835938 97.441406 67.832031 107.285156 78.90625 111.40625 C 82.460938 112.734375 85.703125 113.066406 89.0625 113.59375 C 88.28125 114.511719 87.148438 115.234375 86.5625 116.25 C 83.320312 121.757812 82.265625 127.890625 80.9375 134.375 C 78.300781 147.324219 75.214844 161.816406 57.1875 176.5625 C 55.976562 177.558594 55.292969 179.0625 55.371094 180.625 C 55.429688 182.1875 56.210938 183.632812 57.5 184.53125 C 59.082031 185.605469 60.449219 185.820312 61.875 186.09375 C 63.300781 186.367188 64.863281 186.503906 66.71875 186.5625 C 67.558594 186.601562 68.90625 186.425781 69.84375 186.40625 C 68.808594 187.636719 68.75 188.417969 67.34375 189.6875 C 63.105469 193.554688 57.675781 197.5 52.1875 200.9375 C 41.210938 207.8125 30.625 212.8125 30.625 212.8125 C 28.867188 213.632812 27.734375 215.410156 27.734375 217.34375 C 27.734375 219.277344 28.867188 221.054688 30.625 221.875 C 51.210938 231.660156 73.984375 231.679688 84.375 231.40625 C 82.246094 234.882812 79.511719 238.90625 76.875 241.25 C 75.292969 242.636719 74.765625 244.863281 75.527344 246.835938 C 76.289062 248.789062 78.203125 250.058594 80.3125 250 C 105.253906 250 125.996094 248.261719 141.5625 246.09375 C 157.128906 243.925781 166.992188 241.503906 171.71875 239.6875 C 173.691406 238.964844 175 237.089844 175 235 C 175 214.570312 166.445312 187.265625 161.875 174.6875 C 171.855469 174.296875 177.832031 171.796875 182.34375 169.53125 C 187.1875 167.109375 191.230469 165 203.59375 165 C 211.855469 165 218.300781 160.058594 222.65625 155 C 224.84375 152.460938 226.582031 149.765625 227.8125 147.34375 C 229.042969 144.921875 230 143.164062 230 140.3125 C 230 139.257812 229.707031 137.578125 228.90625 136.25 C 228.105469 134.921875 227.128906 134.0625 226.09375 133.28125 C 224.023438 131.699219 221.171875 130 216.09375 126.71875 C 207.285156 121.054688 185.507812 106.875 183.59375 105.625 C 183.378906 104.453125 183.574219 103.632812 182.8125 102.1875 C 181.347656 99.414062 178.476562 96.640625 174.21875 94.84375 C 190.878906 88.867188 207.636719 75.15625 214.375 52.5 C 214.414062 52.382812 214.492188 52.304688 214.53125 52.1875 C 214.609375 51.894531 214.765625 51.699219 214.84375 51.40625 C 215.839844 48.808594 214.550781 45.917969 211.953125 44.921875 C 209.355469 43.925781 206.464844 45.214844 205.46875 47.8125 C 204.960938 48.828125 200.175781 55.332031 193.28125 60.46875 C 186.386719 65.605469 177.382812 70 167.1875 70 C 164.003906 70 162.304688 69.316406 161.40625 68.75 C 160.507812 68.183594 160.136719 67.734375 159.6875 66.40625 C 158.789062 63.75 158.964844 58.339844 158.75 52.34375 C 158.535156 46.347656 157.578125 39.179688 152.34375 33.59375 C 147.109375 28.007812 138.398438 25 125 25 C 122.714844 24.960938 120.683594 26.503906 120.097656 28.710938 C 119.492188 30.9375 120.488281 33.261719 122.5 34.375 C 128.828125 38.007812 132.011719 40.996094 133.4375 43.28125 C 134.863281 45.566406 134.921875 47.246094 134.6875 49.6875 C 134.375 52.949219 133.554688 57.96875 133.90625 63.59375 C 129.101562 62.34375 123.476562 60.195312 118.59375 55.625 C 111.40625 48.925781 106.132812 38.75 109.84375 21.09375 C 110.292969 19.042969 109.394531 16.914062 107.617188 15.800781 C 105.820312 14.667969 103.535156 14.785156 101.875 16.09375 C 90.703125 25.214844 88.964844 37.617188 90.3125 46.71875 C 90.683594 49.277344 91.367188 51.035156 92.03125 53.125 C 89.941406 52.636719 88.847656 52.753906 86.40625 51.875 C 80.507812 49.765625 73.964844 46.542969 68.28125 42.34375 C 62.597656 38.144531 57.734375 33.027344 55.15625 27.1875 C 52.578125 21.347656 51.933594 14.785156 54.6875 6.5625 C 55.214844 4.960938 54.921875 3.222656 53.867188 1.894531 C 52.832031 0.566406 51.210938 -0.136719 49.53125 0 C 49.375 0 49.21875 0 49.0625 0 Z M 45 26.71875 C 45.429688 28.203125 45.488281 29.863281 46.09375 31.25 C 49.589844 39.199219 55.527344 45.546875 62.1875 50.46875 C 68.847656 55.390625 76.289062 58.847656 82.96875 61.25 C 89.648438 63.652344 95.488281 65 100 65 C 101.757812 64.960938 103.378906 63.984375 104.238281 62.460938 C 105.117188 60.917969 105.097656 59.023438 104.21875 57.5 C 104.21875 57.5 101.171875 52.226562 100.15625 45.3125 C 100.019531 44.355469 100.371094 43.320312 100.3125 42.34375 C 102.363281 50.996094 106.445312 58.046875 111.71875 62.96875 C 121.113281 71.738281 132.480469 75 140 75 C 141.738281 74.980469 143.359375 74.0625 144.257812 72.558594 C 145.15625 71.054688 145.195312 69.199219 144.375 67.65625 C 141.464844 61.992188 143.964844 58.085938 144.6875 50.625 C 145.019531 47.167969 144.414062 42.949219 142.1875 38.90625 C 143.046875 39.472656 144.433594 39.863281 145 40.46875 C 147.675781 43.320312 148.554688 47.402344 148.75 52.65625 C 148.945312 57.910156 148.203125 63.75 150.15625 69.53125 C 151.132812 72.421875 153.105469 75.449219 156.09375 77.34375 C 159.082031 79.238281 162.773438 80 167.1875 80 C 174.707031 80 181.328125 78.007812 187.34375 75.3125 C 176.992188 83.90625 164.824219 88.4375 155.3125 88.4375 C 155 88.457031 154.6875 88.515625 154.375 88.59375 C 146.640625 86.855469 137.441406 85.507812 127.1875 85.3125 C 121.582031 79.238281 115.839844 75.46875 110 73.90625 C 103.75 72.226562 97.8125 72.8125 92.34375 73.75 C 84.921875 72.363281 72.851562 67.441406 62.96875 59.6875 C 52.734375 51.640625 45 40.917969 45 27.34375 C 45 27.070312 45 26.972656 45 26.71875 Z M 100.78125 82.8125 C 103.027344 82.773438 105.195312 83.027344 107.34375 83.59375 C 111.621094 84.746094 116.152344 87.304688 121.25 93.28125 C 122.1875 94.375 123.554688 95 125 95 C 146.230469 95 162.675781 100.859375 170.3125 104.0625 C 172.773438 105.097656 173.496094 106.09375 173.90625 106.875 C 174.316406 107.65625 174.355469 108.300781 174.375 109.0625 C 174.433594 110.722656 175.3125 112.246094 176.71875 113.125 C 176.71875 113.125 201.523438 129.199219 210.78125 135.15625 C 215.78125 138.378906 218.457031 140.175781 219.6875 141.09375 C 219.570312 141.445312 219.492188 141.660156 218.90625 142.8125 C 218.066406 144.472656 216.777344 146.5625 215.15625 148.4375 C 211.914062 152.1875 207.65625 155 203.59375 155 C 189.941406 155 182.929688 157.890625 177.8125 160.46875 C 172.695312 163.046875 169.902344 165 160 165 C 147.519531 165 140.175781 160.683594 135.625 156.40625 C 131.074219 152.128906 129.6875 148.28125 129.6875 148.28125 C 129.140625 146.503906 127.675781 145.175781 125.859375 144.824219 C 124.023438 144.472656 122.167969 145.15625 121.015625 146.601562 C 119.84375 148.046875 119.570312 150.019531 120.3125 151.71875 C 120.3125 151.71875 122.636719 157.871094 128.75 163.59375 C 133.359375 167.929688 141.210938 171.464844 150.78125 173.28125 C 153.652344 180.683594 163.242188 211.601562 164.375 231.09375 C 160.253906 232.34375 153.164062 234.277344 140.15625 236.09375 C 127.734375 237.832031 109.824219 238.886719 90.9375 239.375 C 94.6875 233.769531 97.5 228.59375 97.5 228.59375 C 98.203125 226.992188 98.046875 225.15625 97.050781 223.710938 C 96.054688 222.285156 94.394531 221.464844 92.65625 221.5625 C 92.65625 221.5625 66.640625 222.304688 45.3125 216.09375 C 49.609375 213.886719 51.25 213.28125 57.5 209.375 C 63.300781 205.742188 69.277344 201.5625 74.21875 197.03125 C 79.160156 192.5 83.320312 187.8125 84.6875 181.875 C 85.078125 180.253906 84.628906 178.554688 83.496094 177.324219 C 82.363281 176.113281 80.703125 175.527344 79.0625 175.78125 C 75.917969 176.210938 73.808594 176.152344 71.40625 176.25 C 84.453125 162.050781 88.535156 147.460938 90.78125 136.40625 C 92.128906 129.84375 93.222656 124.53125 95.15625 121.25 C 97.089844 117.96875 99.375 116.113281 105.78125 115 C 108.535156 114.785156 110.605469 112.363281 110.390625 109.609375 C 110.175781 106.855469 107.753906 104.785156 105 105 C 104.824219 105 104.414062 105 104.21875 105 C 99.628906 105.019531 90.625 105.273438 82.34375 102.1875 C 75.410156 99.609375 69.550781 95.136719 66.875 85.9375 C 76.347656 87.597656 85.15625 85.3125 92.65625 83.90625 C 93.515625 83.964844 94.375 83.808594 95.15625 83.4375 C 97.109375 83.144531 98.984375 82.832031 100.78125 82.8125 Z M 142.65625 112.96875 C 140.976562 119.160156 144.589844 125.507812 150.78125 127.1875 C 156.972656 128.867188 163.320312 125.097656 165 118.90625 Z M 142.65625 112.96875 "/>
</g>
</svg>
