<?xml version="1.0" encoding="UTF-8"?>
<svg xmlns="http://www.w3.org/2000/svg" xmlns:xlink="http://www.w3.org/1999/xlink" viewBox="0 0 250 250" width="250px" height="250px">
<g id="surface110396038">
<path style=" stroke:none;fill-rule:nonzero;fill:#ffba08;fill-opacity:1;" d="M 54.0625 10 C 52.597656 10.273438 51.328125 11.171875 50.605469 12.480469 C 49.882812 13.769531 49.785156 15.332031 50.3125 16.71875 C 52.460938 22.792969 56.40625 30.332031 61.875 36.71875 C 47.070312 36.601562 30 38.769531 12.65625 45.9375 C 10.839844 46.660156 9.628906 48.378906 9.53125 50.3125 C 9.433594 52.265625 10.46875 54.082031 12.1875 55 C 12.304688 55.058594 14.667969 56.894531 17.1875 59.375 C 19.707031 61.855469 22.792969 64.941406 26.25 68.28125 C 32.265625 74.0625 39.21875 80.390625 47.1875 83.90625 C 42.226562 88.125 32.890625 94.355469 19.0625 95.46875 C 17.128906 95.605469 15.449219 96.835938 14.746094 98.652344 C 14.042969 100.449219 14.453125 102.5 15.78125 103.90625 C 15.78125 103.90625 18.710938 107.070312 23.125 110.3125 C 25.546875 112.089844 28.574219 113.769531 31.875 115.15625 C 29.0625 118.4375 26.523438 121.894531 22.5 124.84375 C 16.523438 129.199219 11.09375 132.1875 11.09375 132.1875 C 9.511719 133.066406 8.515625 134.746094 8.515625 136.5625 C 8.515625 138.378906 9.511719 140.058594 11.09375 140.9375 C 11.09375 140.9375 14.316406 142.65625 18.28125 144.375 C 20.117188 145.175781 22.363281 145.410156 24.375 146.09375 C 16.289062 164.023438 2.34375 173.75 2.34375 173.75 C 0.683594 174.628906 -0.351562 176.367188 -0.332031 178.242188 C -0.3125 180.117188 0.761719 181.816406 2.460938 182.65625 C 4.140625 183.496094 6.152344 183.300781 7.65625 182.1875 C 7.65625 182.1875 27.636719 169.433594 36.25 144.6875 C 36.816406 143.164062 36.582031 141.445312 35.664062 140.117188 C 34.726562 138.769531 33.203125 137.96875 31.5625 137.96875 C 30.585938 137.96875 26.972656 136.777344 23.90625 135.625 C 25.820312 134.394531 25.976562 134.492188 28.28125 132.8125 C 34.804688 128.046875 42.304688 122.1875 45.625 114.53125 C 46.308594 113.007812 46.171875 111.269531 45.3125 109.863281 C 44.433594 108.4375 42.910156 107.558594 41.25 107.5 C 38.105469 107.363281 34.472656 105.332031 31.25 103.28125 C 44.6875 99.492188 53.515625 92.109375 57.03125 88.59375 C 57.480469 88.203125 57.851562 87.714844 58.125 87.1875 C 69.589844 89.296875 77.890625 86.914062 81.71875 85 C 83.378906 84.238281 84.511719 82.617188 84.628906 80.78125 C 84.746094 78.964844 83.847656 77.207031 82.304688 76.230469 C 80.742188 75.253906 78.789062 75.195312 77.1875 76.09375 C 75.78125 76.796875 66.777344 79.863281 54.0625 75.78125 C 47.597656 73.769531 39.863281 67.421875 33.28125 61.09375 C 30.117188 58.046875 27.128906 55.078125 24.53125 52.5 C 43.730469 46.328125 62.519531 45.820312 76.875 47.5 C 78.085938 47.65625 79.296875 47.382812 80.3125 46.71875 C 88.925781 40.976562 100.273438 35 115.46875 35 C 139.296875 35 152.578125 38.066406 160.3125 41.71875 C 168.046875 45.371094 170.566406 49.296875 173.90625 53.90625 C 174.824219 55.15625 176.269531 55.898438 177.8125 55.9375 C 206.367188 56.914062 225.46875 65.625 225.46875 65.625 C 226.113281 65.859375 226.816406 65.976562 227.5 65.9375 C 227.5 65.9375 232.636719 66.113281 239.6875 67.03125 C 239.355469 68.339844 237.792969 70.9375 236.71875 72.1875 C 235.683594 73.398438 235.273438 75.019531 235.625 76.5625 C 236.523438 80.703125 233.242188 91.152344 228.90625 99.6875 C 225.136719 107.128906 221.914062 111.660156 220.9375 113.125 C 217.617188 113.613281 192.246094 117.050781 171.71875 104.21875 L 171.71875 104.375 C 161.230469 97.558594 152.460938 94.199219 144.375 95 C 136.289062 95.800781 129.863281 101.09375 125.625 108.4375 C 122.441406 113.828125 120.839844 118.730469 120.9375 123.4375 C 121.035156 128.144531 123.203125 132.402344 126.25 135.46875 C 132.324219 141.621094 141.367188 144.472656 151.25 147.1875 C 161.132812 149.902344 171.855469 152.128906 180.625 155.46875 C 188.417969 158.4375 193.964844 162.226562 197.03125 166.875 C 195.683594 170.175781 192.382812 174.589844 188.28125 178.125 C 187.480469 178.808594 187.480469 178.613281 186.71875 179.21875 C 186.25 177.402344 185.976562 175.488281 184.21875 173.90625 C 181.699219 171.640625 178.046875 170.898438 174.21875 171.5625 C 164.726562 173.144531 159.648438 171.230469 154.6875 169.84375 C 152.207031 169.140625 149.394531 168.398438 146.09375 169.21875 C 142.792969 170.039062 140.097656 172.597656 138.125 175.9375 C 138.066406 176.09375 138.007812 176.25 137.96875 176.40625 C 134.277344 184.140625 135.996094 192.578125 137.96875 199.0625 C 138.4375 200.566406 138.554688 200.429688 139.0625 201.71875 C 134.785156 200.273438 131.25 198.28125 131.25 198.28125 C 130.097656 197.304688 128.574219 196.875 127.089844 197.148438 C 125.605469 197.421875 124.316406 198.359375 123.59375 199.6875 C 114.414062 217.421875 126.09375 238.28125 126.09375 238.28125 C 126.855469 239.941406 128.476562 241.074219 130.3125 241.191406 C 132.128906 241.308594 133.886719 240.410156 134.863281 238.867188 C 135.839844 237.304688 135.898438 235.351562 135 233.75 C 135 233.75 129.511719 220.839844 131.25 210 C 135.351562 212.03125 141.054688 213.90625 147.65625 212.96875 C 149.296875 212.753906 150.722656 211.757812 151.464844 210.292969 C 152.207031 208.808594 152.1875 207.070312 151.40625 205.625 C 151.40625 205.625 149.140625 201.484375 147.5 196.09375 C 145.917969 190.898438 145.292969 184.902344 146.875 181.09375 C 146.972656 180.917969 146.933594 181.074219 147.03125 180.9375 C 148.085938 179.257812 148.476562 178.925781 148.59375 178.90625 C 148.710938 178.867188 149.824219 178.90625 152.03125 179.53125 C 156.445312 180.761719 164.257812 183.320312 175.78125 181.40625 C 177.714844 181.074219 177.792969 181.367188 177.65625 181.25 C 177.519531 181.132812 177.714844 181.523438 177.8125 182.5 C 177.988281 184.453125 177.1875 187.5 177.1875 187.5 C 176.503906 189.53125 177.167969 191.777344 178.867188 193.085938 C 180.566406 194.394531 182.910156 194.472656 184.6875 193.28125 C 184.6875 193.28125 189.589844 190.15625 194.84375 185.625 C 200.097656 181.09375 206.054688 175.390625 207.8125 167.65625 C 208.085938 166.5625 207.96875 165.410156 207.5 164.375 C 204.042969 157.070312 197.558594 152.421875 190.15625 148.90625 C 191.132812 144.882812 191.640625 138.964844 189.53125 131.5625 C 184.101562 138.359375 177.910156 142.851562 176.71875 143.75 C 174.511719 143.066406 172.226562 142.324219 170 141.71875 C 170.292969 139.492188 170.46875 137.167969 170.46875 134.53125 C 168.105469 136.640625 165.527344 138.359375 163.125 139.84375 C 161.542969 139.433594 159.980469 139.003906 158.4375 138.59375 C 158.75 136.191406 158.730469 133.496094 158.4375 130.46875 C 155.742188 132.890625 152.96875 134.84375 150.3125 136.40625 C 148.613281 135.898438 147.011719 135.390625 145.46875 134.84375 C 145.917969 132.304688 146.230469 129.570312 145.9375 126.5625 C 143.515625 128.710938 140.996094 130.527344 138.59375 132.03125 C 136.367188 130.898438 134.453125 129.628906 133.28125 128.4375 C 131.640625 126.777344 130.976562 125.449219 130.9375 123.28125 C 130.898438 121.113281 131.796875 117.96875 134.375 113.59375 C 134.375 113.535156 134.375 113.496094 134.375 113.4375 C 137.636719 107.773438 140.78125 105.449219 145.3125 105 C 146.640625 104.863281 148.28125 105 150 105.3125 C 149.941406 107.890625 149.804688 110.839844 149.53125 114.0625 C 153.027344 112.792969 155.898438 110.644531 158.4375 108.28125 C 160.234375 109.140625 162.167969 110.3125 164.21875 111.5625 C 164.53125 114.023438 164.667969 117.128906 164.0625 121.5625 C 166.992188 120.683594 169.648438 118.515625 172.03125 115.9375 C 173.652344 116.738281 175.253906 117.460938 176.875 118.125 C 176.777344 120.722656 176.386719 123.671875 175.9375 127.03125 C 179.023438 126.113281 181.953125 123.535156 184.53125 120.625 C 187.988281 121.601562 191.386719 122.304688 194.6875 122.8125 C 195.234375 126.582031 195.78125 132.96875 194.53125 142.03125 C 201.796875 139.492188 207.929688 129.453125 210.78125 124.0625 C 219.160156 123.984375 224.84375 122.96875 224.84375 122.96875 C 226.191406 122.714844 227.382812 121.933594 228.125 120.78125 C 228.125 120.78125 233.144531 113.4375 237.8125 104.21875 C 242.050781 95.859375 245.9375 86.25 245.15625 77.1875 C 246.835938 75.058594 248.730469 72.597656 249.53125 69.0625 C 250.019531 66.953125 250.058594 64.257812 248.59375 61.71875 C 247.128906 59.179688 244.335938 57.578125 241.40625 57.03125 C 241.308594 57.03125 241.191406 57.03125 241.09375 57.03125 C 233.730469 56.054688 228.90625 55.9375 228.28125 55.9375 C 226.582031 55.195312 208.203125 47.636719 180.46875 46.25 C 177.363281 42.011719 173.242188 36.699219 164.6875 32.65625 C 155.78125 28.457031 142.539062 25.625 121.5625 25.15625 C 119.882812 23.984375 115.429688 21.035156 106.40625 17.8125 C 95.371094 13.867188 78.535156 10 55 10 C 54.84375 10 54.6875 10 54.53125 10 C 54.375 10 54.21875 10 54.0625 10 Z M 63.75 20.78125 C 79.941406 21.601562 92.734375 23.808594 101.25 26.5625 C 91.40625 28.75 83.4375 32.949219 77.03125 37.03125 C 71.933594 33.632812 67.285156 27.050781 63.75 20.78125 Z M 141.71875 60.625 C 134.902344 60.9375 130 62.03125 130 62.03125 C 130.507812 65.527344 137.441406 75.566406 145.9375 76.5625 C 152.441406 70.566406 159.003906 65.9375 165 63.4375 C 157.246094 60.683594 148.535156 60.3125 141.71875 60.625 Z M 141.71875 60.625 "/>
</g>
</svg>
