<?xml version="1.0" encoding="UTF-8"?>
<svg xmlns="http://www.w3.org/2000/svg" xmlns:xlink="http://www.w3.org/1999/xlink" viewBox="0 0 250 250" width="250px" height="250px">
<g id="surface110212988">
<path style=" stroke:none;fill-rule:nonzero;fill:#ffba08;fill-opacity:1;" d="M 86.5625 10.15625 C 67.265625 11.152344 52.1875 20.15625 52.1875 20.15625 L 51.71875 20.3125 L 51.40625 20.625 C 51.40625 20.625 20.878906 47.441406 28.4375 83.28125 L 28.59375 84.21875 L 29.21875 85.15625 C 31.308594 88.027344 33.613281 90.527344 36.5625 92.5 C 33.105469 92.363281 29.726562 92.988281 26.40625 94.0625 L 25.3125 94.375 L 24.53125 95.15625 C -2.636719 119.707031 6.40625 159.21875 6.40625 159.21875 L 6.40625 159.6875 L 6.71875 160.15625 C 6.71875 160.15625 22.65625 197.363281 59.0625 201.25 L 60.15625 201.40625 L 61.09375 201.09375 C 64.375 200.019531 67.597656 198.632812 70.3125 196.5625 C 69.179688 199.726562 68.75 203.125 68.75 206.5625 L 68.75 207.65625 L 69.21875 208.59375 C 84.179688 242.011719 124.53125 245.78125 124.53125 245.78125 L 125.46875 245.78125 C 125.46875 245.78125 165.839844 242.011719 180.78125 208.59375 L 181.25 207.65625 L 181.25 206.5625 C 181.25 203.105469 180.820312 199.726562 179.6875 196.5625 C 182.402344 198.632812 185.625 200.019531 188.90625 201.09375 L 189.84375 201.40625 L 190.9375 201.25 C 227.34375 197.363281 243.28125 160.15625 243.28125 160.15625 L 243.59375 159.6875 L 243.59375 159.21875 C 243.59375 159.21875 252.636719 119.707031 225.46875 95.15625 L 224.6875 94.375 L 223.59375 94.0625 C 220.273438 92.988281 216.894531 92.363281 213.4375 92.5 C 216.386719 90.527344 218.691406 88.027344 220.78125 85.15625 L 221.40625 84.21875 L 221.5625 83.28125 C 229.121094 47.441406 198.59375 20.625 198.59375 20.625 L 198.28125 20.3125 L 197.8125 20.15625 C 197.8125 20.15625 178.183594 8.457031 155 10.3125 C 147.265625 10.9375 139.179688 13.085938 131.25 17.65625 L 130.3125 18.125 L 129.6875 19.0625 C 127.65625 21.855469 125.976562 24.6875 125 27.96875 C 124.023438 24.6875 122.34375 21.855469 120.3125 19.0625 L 119.6875 18.125 L 118.75 17.65625 C 110.820312 13.085938 102.734375 10.9375 95 10.3125 C 92.109375 10.078125 89.316406 10.019531 86.5625 10.15625 Z M 88.75 20.3125 C 96.40625 20.15625 104.6875 21.503906 112.65625 25.78125 C 114.199219 28.046875 115.429688 30.058594 115.78125 31.71875 C 116.152344 33.4375 115.800781 35.429688 114.84375 38.125 C 114.785156 38.164062 114.746094 38.242188 114.6875 38.28125 C 105.195312 41.152344 91.347656 47.910156 84.53125 63.125 L 84.0625 64.0625 L 84.0625 65.15625 C 84.0625 66.777344 84.570312 68.378906 84.84375 70 C 83.4375 69.257812 82.109375 68.144531 80.625 67.65625 L 79.6875 67.34375 L 78.59375 67.34375 C 63.632812 68.945312 53.671875 78.144531 47.65625 85.9375 C 45.429688 85.878906 43.964844 85.449219 42.65625 84.6875 C 41.25 83.867188 39.726562 82.1875 38.125 80.15625 C 32.773438 51.621094 56.953125 29.238281 57.65625 28.59375 C 58.164062 28.300781 71.914062 20.644531 88.75 20.3125 Z M 156.5625 20.3125 C 175.449219 19.082031 191.796875 28.28125 192.34375 28.59375 C 193.046875 29.238281 217.109375 51.699219 211.875 80.15625 C 210.273438 82.1875 208.75 83.867188 207.34375 84.6875 C 206.015625 85.449219 204.570312 85.878906 202.34375 85.9375 C 196.328125 78.144531 186.367188 68.945312 171.40625 67.34375 L 170.3125 67.34375 L 169.375 67.65625 C 167.890625 68.144531 166.582031 69.257812 165.15625 70 C 165.429688 68.378906 165.9375 66.777344 165.9375 65.15625 L 165.9375 64.0625 L 165.46875 63.125 C 158.671875 47.890625 144.804688 41.152344 135.3125 38.28125 C 135.253906 38.242188 135.214844 38.164062 135.15625 38.125 C 134.199219 35.429688 133.847656 33.4375 134.21875 31.71875 C 134.570312 30.058594 135.800781 28.046875 137.34375 25.78125 C 143.710938 22.34375 150.273438 20.722656 156.5625 20.3125 Z M 125 46.25 C 125.253906 46.289062 127.558594 46.601562 130.78125 47.5 C 130.839844 47.519531 130.878906 47.636719 130.9375 47.65625 C 131.601562 48.027344 132.363281 48.242188 133.125 48.28125 C 140.351562 50.703125 150.585938 55.820312 155.78125 66.40625 C 155.683594 67.792969 155.625 69.140625 155.3125 69.84375 C 154.882812 70.820312 154.277344 71.757812 152.34375 72.96875 C 145.195312 73.925781 139.53125 77.65625 137.65625 82.96875 C 135.527344 89.003906 137.167969 95.761719 142.1875 100 C 147.441406 104.453125 154.785156 103.828125 160.15625 100.15625 C 164.921875 96.894531 167.363281 90.3125 166.09375 82.96875 L 166.25 82.96875 C 166.816406 80.742188 167.34375 79.921875 168.125 79.21875 C 168.710938 78.691406 170.058594 78.183594 171.40625 77.65625 C 189.003906 80.273438 198.085938 96.972656 199.53125 99.84375 C 199.238281 101.191406 199.53125 102.617188 200.3125 103.75 C 200.976562 109.746094 201.601562 125.351562 190.3125 136.25 C 188.964844 136.601562 187.65625 136.953125 186.875 136.875 C 185.917969 136.777344 184.941406 136.328125 183.4375 135.15625 C 180.585938 128.476562 175.957031 123.769531 170.3125 122.65625 C 164.023438 121.425781 157.226562 124.707031 154.0625 130.78125 C 150.371094 137.871094 153.085938 146.074219 158.59375 150.46875 C 163.496094 154.394531 171.015625 154.667969 177.8125 151.09375 L 177.8125 151.25 C 180.097656 151.09375 181.113281 151.503906 182.03125 152.03125 C 182.695312 152.421875 183.515625 153.496094 184.375 154.53125 C 186.367188 166.347656 180.878906 176.640625 176.40625 182.8125 C 174.941406 183.496094 173.90625 184.824219 173.59375 186.40625 C 173.59375 186.464844 173.59375 186.503906 173.59375 186.5625 C 172.734375 187.539062 172.207031 187.96875 171.875 188.28125 C 170.449219 188.417969 169.121094 189.140625 168.28125 190.3125 C 162.421875 192.910156 148.007812 197.890625 134.53125 190.78125 C 133.789062 189.609375 133.125 188.417969 132.96875 187.65625 C 132.753906 186.660156 132.832031 185.566406 133.59375 183.59375 C 133.613281 183.515625 133.554688 183.515625 133.59375 183.4375 C 138.925781 178.496094 141.679688 172.148438 140.3125 166.40625 C 138.769531 159.882812 132.558594 155 125 155 C 117.441406 155 111.230469 159.882812 109.6875 166.40625 C 108.320312 172.167969 111.074219 178.496094 116.40625 183.4375 C 116.445312 183.457031 116.367188 183.574219 116.40625 183.59375 C 117.167969 185.566406 117.246094 186.660156 117.03125 187.65625 C 116.875 188.417969 116.210938 189.609375 115.46875 190.78125 C 100.214844 198.828125 83.886719 191.425781 80.15625 189.53125 C 79.960938 189.414062 79.746094 189.316406 79.53125 189.21875 C 79.472656 189.179688 79.257812 189.082031 79.21875 189.0625 C 79.0625 189.003906 78.90625 188.945312 78.75 188.90625 C 78.652344 188.808594 77.65625 187.8125 76.40625 186.40625 C 76.09375 184.921875 75.117188 183.652344 73.75 182.96875 C 73.691406 182.910156 73.652344 182.871094 73.59375 182.8125 C 69.082031 176.660156 63.554688 166.386719 65.625 154.53125 C 66.484375 153.496094 67.304688 152.421875 67.96875 152.03125 C 68.886719 151.503906 69.902344 151.09375 72.1875 151.25 C 78.789062 154.765625 85.957031 154.550781 90.78125 151.09375 C 96.210938 147.1875 99.199219 140.136719 96.5625 133.4375 C 94.042969 127.050781 87.617188 123.359375 81.09375 123.75 C 75.351562 124.082031 70.019531 128.417969 66.875 135 C 65.117188 136.464844 64.179688 136.757812 63.125 136.875 C 62.34375 136.953125 61.035156 136.601562 59.6875 136.25 C 48.398438 125.351562 49.003906 109.746094 49.6875 103.75 C 50.527344 102.636719 50.878906 101.210938 50.625 99.84375 C 50.625 99.785156 50.625 99.746094 50.625 99.6875 C 52.265625 96.464844 61.25 80.234375 78.59375 77.65625 C 79.941406 78.183594 81.289062 78.691406 81.875 79.21875 C 82.65625 79.921875 83.183594 80.742188 83.75 82.96875 L 83.90625 82.96875 C 82.617188 90.292969 84.902344 96.992188 89.6875 100.3125 C 95.078125 104.042969 102.636719 104.414062 107.96875 99.84375 C 112.753906 95.742188 114.023438 89.101562 112.03125 83.125 C 110.292969 77.851562 104.824219 73.984375 97.65625 72.96875 C 95.722656 71.757812 95.117188 70.820312 94.6875 69.84375 C 94.375 69.140625 94.316406 67.792969 94.21875 66.40625 C 99.355469 55.957031 109.355469 50.742188 116.5625 48.28125 C 116.699219 48.242188 116.914062 48.320312 117.03125 48.28125 C 117.695312 48.203125 118.320312 47.988281 118.90625 47.65625 C 122.304688 46.679688 124.726562 46.289062 125 46.25 Z M 93.90625 82.1875 L 95 82.1875 C 100.488281 82.1875 101.914062 84.042969 102.65625 86.25 C 103.398438 88.457031 102.402344 91.328125 101.40625 92.1875 C 100.058594 93.339844 97.363281 93.457031 95.3125 92.03125 C 93.261719 90.605469 91.777344 88.378906 93.4375 83.28125 Z M 155 82.1875 L 156.09375 82.1875 L 156.5625 83.28125 C 158.203125 88.339844 156.679688 90.410156 154.53125 91.875 C 152.382812 93.339844 149.609375 93.066406 148.75 92.34375 C 147.070312 90.917969 146.289062 88.339844 147.03125 86.25 C 147.773438 84.160156 149.453125 82.1875 155 82.1875 Z M 36.71875 102.1875 C 37.636719 102.226562 38.59375 102.441406 39.53125 102.8125 C 39.550781 102.8125 39.511719 102.96875 39.53125 102.96875 C 38.59375 111.894531 38.652344 131.171875 53.4375 144.53125 L 54.375 145.15625 L 55.3125 145.625 C 56.71875 146.074219 58.359375 146.015625 59.84375 146.25 C 58.75 147.34375 57.460938 148.300781 56.5625 149.53125 L 55.9375 150.46875 L 55.78125 151.40625 C 52.480469 167.03125 59.023438 180.078125 64.84375 188.125 C 63.398438 189.296875 61.484375 190.195312 58.90625 191.09375 C 30.351562 187.167969 16.484375 157.441406 16.09375 156.5625 C 15.9375 155.78125 9.550781 123.4375 30.46875 103.4375 C 32.988281 102.65625 34.941406 102.109375 36.71875 102.1875 Z M 213.28125 102.1875 C 215.058594 102.109375 217.011719 102.65625 219.53125 103.4375 C 240.449219 123.457031 234.0625 155.78125 233.90625 156.5625 C 233.515625 157.441406 219.648438 187.167969 191.09375 191.09375 C 188.457031 190.175781 186.601562 189.335938 185.15625 188.125 C 190.976562 180.078125 197.519531 167.03125 194.21875 151.40625 L 194.0625 150.46875 L 193.4375 149.53125 C 192.539062 148.300781 191.25 147.34375 190.15625 146.25 C 191.660156 146.015625 193.28125 146.09375 194.6875 145.625 L 195.625 145.15625 L 196.5625 144.53125 C 211.328125 131.171875 211.40625 111.894531 210.46875 102.96875 C 210.46875 102.929688 210.46875 102.851562 210.46875 102.8125 C 211.40625 102.441406 212.363281 102.226562 213.28125 102.1875 Z M 125 105 C 114.003906 105 105 114.003906 105 125 C 105 135.996094 114.003906 145 125 145 C 135.996094 145 145 135.996094 145 125 C 145 114.003906 135.996094 105 125 105 Z M 125 115 C 130.585938 115 135 119.414062 135 125 C 135 130.585938 130.585938 135 125 135 C 119.414062 135 115 130.585938 115 125 C 115 119.414062 119.414062 115 125 115 Z M 166.71875 132.34375 C 167.207031 132.285156 167.753906 132.402344 168.28125 132.5 C 170.410156 132.910156 173.378906 134.824219 175.15625 140.3125 L 175.46875 141.40625 L 174.53125 142.1875 C 170.371094 145.214844 167.167969 144.511719 164.84375 142.65625 C 162.519531 140.800781 161.601562 138.105469 162.96875 135.46875 C 164.003906 133.476562 165.253906 132.5 166.71875 132.34375 Z M 81.71875 133.75 C 84.179688 133.613281 86.503906 134.902344 87.34375 137.03125 C 88.066406 138.847656 87.070312 141.367188 84.84375 142.96875 C 82.617188 144.570312 79.765625 145.3125 75.46875 142.1875 L 74.53125 141.40625 L 74.84375 140.3125 C 76.542969 135.078125 79.257812 133.886719 81.71875 133.75 Z M 125 165 C 128.613281 165 130.117188 166.601562 130.625 168.75 C 131.132812 170.898438 130.449219 174.21875 125.9375 177.5 L 125 178.125 L 124.0625 177.5 C 119.550781 174.21875 118.867188 170.898438 119.375 168.75 C 119.882812 166.601562 121.386719 165 125 165 Z M 125 193.4375 C 125.703125 194.84375 126.132812 196.40625 127.03125 197.65625 L 127.65625 198.59375 L 128.59375 199.0625 C 144.6875 208.320312 161.5625 203.886719 170.46875 200.3125 C 170.859375 201.777344 171.035156 203.496094 171.09375 205.625 C 158.535156 231.640625 125.839844 235.527344 125 235.625 C 124.160156 235.527344 91.484375 231.640625 78.90625 205.625 C 78.964844 203.496094 79.140625 201.777344 79.53125 200.3125 C 88.4375 203.886719 105.3125 208.320312 121.40625 199.0625 L 122.34375 198.59375 L 122.96875 197.65625 C 123.867188 196.40625 124.296875 194.84375 125 193.4375 Z M 125 193.4375 "/>
</g>
</svg>
