<svg xmlns="http://www.w3.org/2000/svg" x="0px" y="0px"
width="40" height="40"
viewBox="0 0 172 172"
style=" fill:#000000;"><g fill="none" fill-rule="nonzero" stroke="none" stroke-width="1" stroke-linecap="butt" stroke-linejoin="miter" stroke-miterlimit="10" stroke-dasharray="" stroke-dashoffset="0" font-family="none" font-weight="none" font-size="none" text-anchor="none" style="mix-blend-mode: normal"><path d="M0,172v-172h172v172z" fill="none"></path><g><path d="M60.2258,143.9425l-53.7758,16.5464v-133.1022l53.7242,-16.5292l51.6,17.2l53.7758,-16.5464v133.1022l-53.7242,16.5292z" fill="#ef476f"></path><path d="M60.1484,13.115l50.2928,16.7657l1.3072,0.4343l1.3158,-0.4042l50.3358,-15.4886v128.6001l-51.5484,15.8627l-50.2928,-16.7657l-1.3072,-0.4343l-1.3158,0.4042l-50.3358,15.4886v-128.6001l51.5484,-15.8627M167.7,8.6l-55.9,17.2l-51.6,-17.2l-55.9,17.2v137.6l55.9,-17.2l51.6,17.2l55.9,-17.2v-137.6z" fill="#ef476f"></path><path d="M111.8,159.1l-51.6,-17.2v-129l51.6,17.2z" fill="#ffffff"></path></g></g></svg>