<?xml version="1.0" encoding="UTF-8"?>
<svg xmlns="http://www.w3.org/2000/svg" xmlns:xlink="http://www.w3.org/1999/xlink" viewBox="0 0 250 250" width="250px" height="250px">
<g id="surface110429012">
<path style=" stroke:none;fill-rule:nonzero;fill:#ffba08;fill-opacity:1;" d="M 144.0625 9.375 C 141.914062 9.375 141.308594 10.019531 140.3125 10.46875 C 139.316406 10.917969 138.242188 11.484375 137.03125 12.1875 C 134.628906 13.59375 131.660156 15.429688 128.28125 17.8125 C 121.503906 22.578125 113.144531 29.179688 104.84375 36.40625 C 96.542969 43.632812 88.28125 51.542969 82.03125 59.21875 C 75.78125 66.894531 71.09375 74.101562 71.09375 81.875 C 71.09375 84.472656 72.480469 86.484375 73.75 87.65625 C 75.019531 88.828125 76.40625 89.550781 77.8125 90.3125 C 80.625 91.835938 83.808594 93.242188 86.875 94.84375 C 89.941406 96.445312 92.695312 98.203125 94.53125 100.15625 C 96.152344 101.875 96.835938 103.59375 97.03125 105.78125 C 91.210938 106.523438 84.824219 107.8125 78.90625 111.40625 C 71.308594 116.035156 65 124.355469 65 135.9375 C 65 139.53125 66.074219 142.65625 67.34375 145.15625 C 68.339844 147.148438 69.472656 148.417969 70.625 149.6875 C 71.503906 154.296875 73.886719 158.183594 76.875 160.46875 C 80.429688 163.203125 83.652344 164.6875 87.5 164.6875 C 89.453125 164.6875 91.230469 163.535156 92.03125 161.757812 C 92.832031 159.960938 92.539062 157.890625 91.25 156.40625 C 91.25 156.40625 90.351562 155.097656 90 153.59375 C 90.097656 153.4375 90.15625 153.378906 90.46875 153.125 C 91.523438 152.304688 93.183594 151.269531 95 150.3125 C 98.164062 148.652344 100.78125 147.65625 101.5625 147.34375 L 111.09375 147.1875 C 111.367188 147.832031 112.03125 149.199219 112.03125 153.75 C 112.03125 158.007812 110.136719 161.25 107.65625 165.3125 C 105.175781 169.375 101.875 174.257812 101.875 180.78125 C 101.875 184.667969 104.453125 186.835938 106.71875 188.4375 C 108.984375 190.039062 111.640625 191.386719 114.84375 192.65625 C 121.230469 195.195312 129.453125 197.480469 138.125 199.53125 C 155.46875 203.632812 174.199219 206.542969 181.71875 207.1875 C 195.78125 208.398438 205 207.8125 205 207.8125 C 206.367188 207.695312 207.617188 207.03125 208.457031 205.976562 C 209.316406 204.902344 209.707031 203.535156 209.53125 202.1875 C 209.53125 202.1875 209.316406 198.984375 207.96875 195.3125 C 206.621094 191.640625 203.984375 186.640625 198.28125 185 C 197.890625 184.882812 194.335938 183.769531 192.65625 183.28125 C 192.03125 180.976562 191.542969 178.710938 190.3125 176.09375 C 189.414062 174.160156 188.359375 172.34375 187.1875 170.625 C 186.015625 168.90625 184.960938 167.1875 182.65625 165.9375 C 182.597656 165.9375 182.558594 165.9375 182.5 165.9375 C 181.40625 165.351562 181.269531 165.449219 180.46875 165.15625 C 179.667969 164.863281 178.671875 164.472656 177.5 164.0625 C 177.402344 162.949219 177.324219 162.011719 177.03125 159.84375 C 176.816406 158.242188 176.484375 156.5625 176.09375 155 C 175.898438 154.21875 175.800781 153.457031 175.46875 152.65625 C 175.136719 151.855469 174.882812 150.878906 173.28125 149.6875 C 171.40625 148.28125 169.726562 147.929688 167.65625 147.1875 C 167.5 147.128906 167.34375 147.089844 167.1875 147.03125 L 164.21875 139.84375 C 163.730469 138.828125 162.890625 137.988281 161.875 137.5 C 161.875 137.5 160.253906 136.5625 159.375 136.09375 C 167.929688 132.167969 175.917969 126.894531 182.34375 122.1875 C 190.390625 116.289062 198.808594 115.625 205.9375 116.40625 C 209.492188 116.796875 212.714844 117.578125 215.15625 118.28125 C 216.386719 118.632812 217.382812 118.945312 218.28125 119.21875 C 219.179688 119.492188 219.238281 119.902344 221.5625 119.84375 C 223.144531 119.804688 223.515625 119.433594 223.90625 119.21875 C 224.296875 119.003906 224.628906 118.75 224.84375 118.59375 C 225.273438 118.261719 225.566406 118.007812 225.9375 117.65625 C 226.660156 116.972656 227.519531 116.191406 228.4375 115.15625 C 230.273438 113.105469 232.558594 110.3125 234.84375 107.1875 C 239.414062 100.917969 244.21875 93.632812 245 86.09375 C 245.117188 84.726562 244.667969 83.359375 243.75 82.34375 C 228.496094 64.53125 205 64.84375 205 64.84375 C 203.476562 64.84375 202.050781 65.527344 201.09375 66.71875 C 201.09375 66.71875 196.835938 72.285156 190.625 77.8125 C 184.414062 83.339844 176.210938 88.476562 169.84375 88.75 C 165.859375 88.925781 155.234375 89.179688 143.90625 91.25 C 144.472656 89.023438 144.453125 86.835938 143.90625 85.15625 C 143.28125 83.222656 142.324219 81.5625 141.40625 80.15625 C 140.800781 79.238281 140.722656 79.316406 140.15625 78.59375 C 140.332031 78.359375 140.46875 78.183594 140.625 77.96875 C 143.769531 73.261719 142.34375 68.90625 141.25 65.3125 C 140.820312 63.925781 140.195312 62.675781 139.6875 61.5625 C 140.820312 60.234375 142.050781 58.867188 142.65625 58.125 C 145 55.273438 144.53125 53.378906 144.6875 51.09375 C 144.84375 48.808594 144.882812 46.347656 144.6875 43.90625 C 144.492188 41.464844 144.121094 39.199219 143.59375 37.1875 C 143.554688 37.03125 143.476562 36.875 143.4375 36.71875 C 145.742188 34.140625 147.519531 32.167969 148.59375 30.625 C 149.667969 29.101562 149.53125 28.535156 149.6875 27.8125 C 149.84375 27.089844 149.921875 26.40625 150 25.625 C 150.15625 24.082031 150.332031 22.226562 150.3125 20.46875 C 150.292969 18.710938 150.136719 17.089844 149.84375 15.46875 C 149.707031 14.648438 149.550781 13.867188 149.0625 12.8125 C 148.808594 12.285156 148.574219 11.660156 147.8125 10.9375 C 147.050781 10.214844 145.625 9.375 144.0625 9.375 Z M 100.15625 10.78125 C 41.015625 18.457031 -4.003906 71.074219 0.3125 133.125 C 4.335938 190.742188 51.992188 237.148438 109.6875 239.84375 C 132.285156 240.898438 153.515625 235.449219 171.71875 225.15625 C 174.355469 223.652344 175.390625 220.15625 174.53125 217.65625 C 173.671875 215.15625 170.664062 212.96875 167.65625 213.4375 C 158.105469 214.921875 148.066406 215.117188 137.8125 213.75 C 92.011719 207.617188 55.488281 170.15625 50.46875 124.21875 C 45.683594 80.371094 68.652344 41.484375 103.90625 22.65625 C 103.964844 22.617188 104.003906 22.539062 104.0625 22.5 C 106.621094 20.996094 107.851562 17.441406 107.03125 15 C 106.191406 12.5 103.183594 10.390625 100.15625 10.78125 Z M 140.3125 22.03125 C 140.292969 22.929688 140.234375 23.847656 140.15625 24.53125 C 140.117188 24.941406 139.882812 25.234375 139.84375 25.46875 C 139.394531 25.996094 137.851562 27.96875 135.46875 30.625 C 135.097656 31.035156 134.609375 31.601562 134.21875 32.03125 C 134.101562 32.128906 134.003906 32.226562 133.90625 32.34375 C 133.613281 32.578125 133.359375 32.832031 133.125 33.125 C 133.066406 33.222656 133.007812 33.339844 132.96875 33.4375 C 130.761719 35.878906 128.378906 38.28125 125.9375 40.9375 C 119.277344 48.183594 112.96875 55 112.96875 55 C 111.074219 57.03125 111.171875 60.214844 113.203125 62.109375 C 115.234375 64.003906 118.417969 63.90625 120.3125 61.875 C 120.3125 61.875 126.601562 55.078125 133.28125 47.8125 C 133.769531 47.265625 134.199219 46.796875 134.6875 46.25 C 134.765625 47.773438 134.765625 49.296875 134.6875 50.46875 C 134.589844 52.03125 133.59375 53.242188 134.84375 51.71875 C 132.1875 54.941406 120 69.0625 120 69.0625 C 118.652344 70.371094 118.144531 72.34375 118.691406 74.140625 C 119.257812 75.9375 120.78125 77.285156 122.636719 77.597656 C 124.511719 77.910156 126.386719 77.148438 127.5 75.625 C 127.5 75.625 130.46875 72.265625 132.03125 70.46875 C 132.050781 71.191406 132.128906 72.832031 132.34375 72.5 C 131.074219 74.394531 125.78125 80.78125 125.78125 80.78125 C 124.511719 82.128906 124.082031 84.082031 124.6875 85.839844 C 125.292969 87.597656 126.816406 88.867188 128.652344 89.160156 C 130.488281 89.433594 132.324219 88.691406 133.4375 87.1875 C 133.4375 87.1875 133.730469 86.894531 133.75 86.875 C 134.003906 87.34375 134.257812 87.949219 134.375 88.28125 C 134.472656 88.59375 134.492188 88.847656 134.53125 88.90625 C 133.203125 92.1875 131.40625 95.15625 131.40625 95.15625 C 130.390625 96.953125 130.605469 99.199219 131.914062 100.78125 C 133.222656 102.363281 135.390625 102.988281 137.34375 102.34375 C 149.609375 98.085938 163.359375 99.0625 170.3125 98.75 C 181.015625 98.28125 190.371094 91.367188 197.34375 85.15625 C 203.066406 80.039062 205.566406 76.796875 206.875 75.15625 C 207.96875 75.195312 211.074219 75.527344 215 76.5625 L 209.53125 79.84375 C 207.148438 81.269531 206.386719 84.355469 207.8125 86.71875 C 209.238281 89.101562 212.304688 89.863281 214.6875 88.4375 L 226.40625 81.40625 C 228.925781 82.910156 231.503906 84.6875 233.90625 87.03125 C 233.496094 88.4375 232.714844 90.15625 231.875 92.03125 L 217.5 92.5 C 214.746094 92.578125 212.578125 94.902344 212.65625 97.65625 C 212.734375 100.410156 215.058594 102.578125 217.8125 102.5 L 225.9375 102.1875 C 224.140625 104.589844 222.304688 106.914062 220.9375 108.4375 C 220.546875 108.886719 220.3125 109.042969 220 109.375 C 219.335938 109.179688 218.730469 109.003906 217.8125 108.75 C 215.058594 107.96875 211.386719 107.03125 207.03125 106.5625 C 198.320312 105.625 186.894531 106.542969 176.40625 114.21875 C 167.34375 120.859375 156.660156 128.632812 147.5 130.46875 C 145.117188 130.917969 143.398438 133.027344 143.4375 135.46875 C 143.4375 138.339844 144.609375 138.632812 145 139.0625 C 145.390625 139.492188 145.664062 139.628906 145.9375 139.84375 C 146.484375 140.273438 147.070312 140.566406 147.65625 140.9375 C 148.574219 141.503906 149.6875 142.207031 150.78125 142.8125 C 148.535156 143.261719 146.875 145.175781 146.777344 147.480469 C 146.660156 149.765625 148.125 151.835938 150.3125 152.5 C 150.3125 152.5 154.101562 153.496094 158.28125 154.6875 C 160.371094 155.273438 162.636719 155.957031 164.375 156.5625 C 165.644531 157.011719 166.015625 157.324219 166.40625 157.5 C 166.601562 158.242188 166.855469 159.355469 167.03125 160.46875 C 162.617188 158.964844 157.8125 157.34375 157.8125 157.34375 C 155.175781 156.484375 152.34375 157.910156 151.484375 160.546875 C 150.625 163.183594 152.050781 166.015625 154.6875 166.875 C 154.6875 166.875 160.292969 168.632812 166.09375 170.625 C 168.984375 171.621094 171.933594 172.636719 174.21875 173.4375 C 175.351562 173.847656 176.328125 174.277344 177.03125 174.53125 C 177.617188 174.746094 177.871094 174.960938 177.65625 174.84375 C 177.714844 174.941406 178.359375 175.429688 178.90625 176.25 C 179.550781 177.207031 180.273438 178.476562 180.9375 179.84375 C 172.167969 177.265625 162.8125 174.53125 162.8125 174.53125 C 160.136719 173.75 157.34375 175.292969 156.5625 177.96875 C 155.78125 180.644531 157.324219 183.4375 160 184.21875 C 160 184.21875 192.773438 193.867188 195.625 194.6875 C 196.25 194.863281 197.070312 196.289062 197.8125 197.65625 C 194.53125 197.773438 191.933594 198.007812 182.5 197.1875 C 176.289062 196.660156 157.285156 193.808594 140.46875 189.84375 C 132.050781 187.851562 124.140625 185.488281 118.59375 183.28125 C 115.820312 182.1875 113.652344 181.113281 112.5 180.3125 C 112.128906 180.039062 112.128906 179.941406 112.03125 179.84375 C 112.363281 177.167969 113.945312 174.375 116.25 170.625 C 118.828125 166.40625 122.03125 160.9375 122.03125 153.75 C 122.03125 147.519531 121.152344 143.789062 119.53125 141.09375 C 118.730469 139.746094 117.65625 138.613281 116.5625 137.96875 C 115.46875 137.324219 113.75 137.1875 113.75 137.1875 C 113.652344 137.1875 113.535156 137.1875 113.4375 137.1875 L 100.46875 137.34375 C 99.882812 137.34375 99.296875 137.460938 98.75 137.65625 C 98.75 137.65625 94.6875 139.335938 90.46875 141.5625 C 88.359375 142.675781 86.113281 143.828125 84.21875 145.3125 C 83.007812 146.25 81.816406 147.539062 80.9375 149.21875 C 80.625 148.535156 79.84375 147.96875 79.84375 147.1875 C 79.84375 145.742188 79.21875 144.375 78.125 143.4375 C 78.320312 143.613281 77.1875 142.1875 76.40625 140.625 C 75.625 139.0625 75 137.226562 75 135.9375 C 75 127.753906 78.730469 123.320312 84.21875 120 C 89.707031 116.679688 97.089844 115.058594 102.5 114.84375 C 105.078125 114.6875 107.109375 112.578125 107.1875 110 C 107.1875 109.453125 107.34375 107.8125 107.34375 106.5625 C 107.34375 101.171875 104.960938 96.582031 101.875 93.28125 C 98.789062 89.980469 95.078125 87.773438 91.5625 85.9375 C 88.046875 84.101562 84.609375 82.714844 82.5 81.5625 C 81.875 81.210938 81.757812 81.015625 81.40625 80.78125 C 81.855469 77.617188 84.628906 71.875 89.84375 65.46875 C 95.507812 58.496094 103.378906 50.878906 111.40625 43.90625 C 119.433594 36.933594 127.597656 30.644531 134.0625 26.09375 C 136.582031 24.316406 138.476562 23.164062 140.3125 22.03125 Z M 84.6875 24.53125 C 54.804688 47.34375 35.957031 84.003906 40.46875 125.3125 C 45.996094 175.859375 86.152344 216.835938 136.5625 223.59375 C 140.800781 224.160156 144.746094 223.339844 148.90625 223.4375 C 136.699219 227.636719 123.808594 230.488281 110 229.84375 C 57.402344 227.402344 13.964844 185.019531 10.3125 132.5 C 6.777344 81.71875 39.238281 38.28125 84.6875 24.53125 Z M 82.5 135 C 81.113281 135 80 136.113281 80 137.5 C 80 138.886719 81.113281 140 82.5 140 C 83.886719 140 85 138.886719 85 137.5 C 85 136.113281 83.886719 135 82.5 135 Z M 82.5 135 "/>
</g>
</svg>
