<?xml version="1.0" encoding="UTF-8"?>
<svg xmlns="http://www.w3.org/2000/svg" xmlns:xlink="http://www.w3.org/1999/xlink" viewBox="0 0 250 250" width="250px" height="250px">
<g id="surface110211157">
<path style=" stroke:none;fill-rule:nonzero;fill:#ffba08;fill-opacity:1;" d="M 110 0 C 106.5625 0 104.082031 1.972656 102.34375 3.90625 C 100.605469 5.839844 99.414062 7.910156 98.59375 10.15625 C 97.128906 14.21875 96.054688 20.488281 95 26.40625 C 94.902344 26.152344 94.941406 25.859375 94.84375 25.625 C 91.113281 17.109375 83.691406 9.804688 71.09375 7.1875 C 61.210938 5.136719 54.472656 9.179688 52.8125 15 C 52.382812 16.484375 52.714844 18.242188 53.28125 19.375 C 53.847656 20.507812 54.550781 21.210938 55.15625 21.71875 C 56.367188 22.714844 57.402344 23.144531 58.4375 23.59375 C 59.472656 24.042969 60.46875 24.414062 61.25 24.6875 C 62.03125 24.960938 62.792969 25.234375 62.34375 25 C 69.746094 28.925781 71.582031 30.917969 72.5 33.125 C 72.792969 33.808594 73.085938 36.367188 73.28125 37.5 C 68.359375 36.015625 63.652344 35.429688 60.3125 35.15625 C 57.539062 34.921875 55.761719 34.433594 54.21875 33.4375 C 52.675781 32.441406 50.898438 30.664062 49.21875 26.40625 C 48.828125 25.429688 48.242188 22.988281 47.1875 20.46875 C 46.660156 19.199219 46.152344 17.753906 44.84375 16.40625 C 43.535156 15.058594 40.898438 13.828125 38.4375 14.21875 C 35.253906 14.726562 32.890625 17.167969 31.71875 19.375 C 30.546875 21.582031 30.097656 23.769531 29.84375 26.09375 C 29.316406 30.761719 29.628906 35.449219 30.9375 39.21875 C 35.527344 52.539062 44.511719 58.242188 52.65625 60.3125 C 52.792969 60.351562 52.832031 60.273438 52.96875 60.3125 C 50.78125 61.542969 48.28125 62.5 46.5625 64.21875 C 40.644531 70.136719 38.203125 78.730469 40 87.65625 C 40.410156 89.648438 43.339844 104.785156 46.09375 120.625 C 47.480469 128.554688 48.847656 136.777344 49.84375 143.59375 C 50.839844 150.410156 51.40625 156.054688 51.40625 158.125 C 51.40625 160.898438 50.3125 162.050781 48.125 163.28125 C 45.9375 164.511719 42.324219 165 42.65625 165 C 36.289062 165 34.84375 163.339844 33.75 161.40625 C 32.65625 159.472656 32.5 156.425781 32.5 154.21875 C 32.5 148.632812 34.21875 141.289062 36.09375 134.0625 C 37.96875 126.835938 40 119.84375 40 113.4375 C 40 89.101562 25.195312 74.511719 17.03125 67.03125 C 13.164062 63.476562 7.207031 64.21875 3.75 67.34375 C 0.839844 69.980469 0.449219 73.222656 0.3125 76.5625 C 0.175781 79.902344 0.644531 83.613281 1.875 87.34375 C 3.984375 93.730469 8.964844 99.804688 16.09375 103.59375 C 16.503906 105.839844 16.875 108.183594 16.875 110.78125 C 16.875 114.609375 14.609375 124.042969 12.1875 133.28125 C 9.765625 142.519531 7.1875 151.425781 7.1875 158.125 C 7.1875 170.253906 12.382812 179.824219 19.375 185.9375 C 26.367188 192.050781 34.980469 195 42.65625 195 C 51.738281 195 61.308594 191.699219 68.59375 185.15625 C 75.878906 178.613281 80.625 168.378906 79.21875 156.25 C 76.738281 134.785156 68.847656 87.8125 68.75 87.1875 L 68.75 87.03125 C 68.789062 86.953125 69.0625 86.035156 69.6875 85.3125 C 70.351562 84.550781 71.113281 84.0625 72.65625 84.0625 C 76.914062 84.0625 79.296875 84.902344 81.09375 86.25 C 80.917969 86.289062 80.800781 86.347656 80.625 86.40625 C 78.828125 87.011719 76.621094 89.023438 75.9375 91.09375 C 74.472656 95.46875 75.605469 99.882812 77.5 103.28125 C 79.394531 106.679688 81.796875 109.765625 84.53125 114.375 C 90 123.613281 96.992188 139.023438 100.46875 171.09375 C 100.917969 175.214844 101.445312 179.160156 102.03125 182.96875 C 99.121094 184.84375 96.09375 187.558594 92.96875 190.9375 C 89.003906 195.234375 85 199.960938 85 206.40625 C 85 213.476562 88.828125 218.867188 92.8125 222.65625 C 96.796875 226.445312 101.113281 229.21875 103.4375 231.25 C 105.234375 232.8125 107.832031 236.992188 110.9375 241.09375 C 114.042969 245.195312 118.378906 250 125 250 C 131.621094 250 135.957031 245.195312 139.0625 241.09375 C 142.167969 236.992188 144.765625 232.8125 146.5625 231.25 C 148.886719 229.21875 153.203125 226.445312 157.1875 222.65625 C 161.171875 218.867188 165 213.476562 165 206.40625 C 165 201.503906 162.8125 196.972656 159.53125 193.125 C 156.621094 189.707031 152.675781 186.484375 147.96875 182.8125 C 148.4375 179.648438 149.003906 176.40625 149.375 172.96875 C 153.535156 135.175781 160.605469 118.75 166.09375 110.46875 C 168.828125 106.328125 171.191406 104.238281 173.28125 101.875 C 174.335938 100.703125 175.351562 99.355469 176.09375 97.5 C 176.835938 95.644531 177.128906 93.320312 176.71875 91.25 C 176.269531 89.042969 174.277344 86.660156 172.34375 85.78125 C 171.71875 85.507812 171.191406 85.449219 170.625 85.3125 C 172.226562 84.570312 174.316406 84.0625 177.34375 84.0625 C 178.886719 84.0625 179.648438 84.550781 180.3125 85.3125 C 180.9375 86.035156 181.210938 86.953125 181.25 87.03125 L 181.25 87.1875 C 181.152344 87.8125 173.261719 134.785156 170.78125 156.25 C 169.375 168.378906 174.121094 178.613281 181.40625 185.15625 C 188.691406 191.699219 198.261719 195 207.34375 195 C 215.019531 195 223.632812 192.050781 230.625 185.9375 C 237.617188 179.824219 242.8125 170.253906 242.8125 158.125 C 242.8125 151.425781 240.234375 142.519531 237.8125 133.28125 C 235.390625 124.042969 233.125 114.609375 233.125 110.78125 C 233.125 108.183594 233.496094 105.839844 233.90625 103.59375 C 241.035156 99.804688 246.015625 93.730469 248.125 87.34375 C 249.355469 83.613281 249.824219 79.902344 249.6875 76.5625 C 249.550781 73.222656 249.160156 69.980469 246.25 67.34375 C 242.792969 64.21875 236.835938 63.476562 232.96875 67.03125 C 224.804688 74.511719 210 89.101562 210 113.4375 C 210 119.84375 212.03125 126.835938 213.90625 134.0625 C 215.78125 141.289062 217.5 148.632812 217.5 154.21875 C 217.5 156.425781 217.34375 159.472656 216.25 161.40625 C 215.15625 163.339844 213.710938 165 207.34375 165 C 207.675781 165 204.0625 164.511719 201.875 163.28125 C 199.6875 162.050781 198.59375 160.898438 198.59375 158.125 C 198.59375 156.054688 199.160156 150.410156 200.15625 143.59375 C 201.152344 136.777344 202.519531 128.554688 203.90625 120.625 C 206.660156 104.785156 209.589844 89.648438 210 87.65625 C 211.796875 78.730469 209.355469 70.136719 203.4375 64.21875 C 201.71875 62.5 199.21875 61.542969 197.03125 60.3125 C 197.167969 60.273438 197.207031 60.351562 197.34375 60.3125 C 205.488281 58.242188 214.472656 52.539062 219.0625 39.21875 C 220.351562 35.449219 220.683594 30.761719 220.15625 26.09375 C 219.902344 23.769531 219.453125 21.582031 218.28125 19.375 C 217.109375 17.167969 214.746094 14.726562 211.5625 14.21875 C 209.101562 13.828125 206.464844 15.058594 205.15625 16.40625 C 203.847656 17.753906 203.339844 19.199219 202.8125 20.46875 C 201.757812 22.988281 201.171875 25.429688 200.78125 26.40625 C 197.363281 35.058594 194.296875 36.230469 188.75 37.8125 C 185.46875 38.75 181.132812 39.84375 176.5625 41.71875 C 176.835938 39.6875 177.207031 36.621094 177.65625 35.15625 C 178.828125 31.40625 180.625 28.730469 187.65625 25 C 187.207031 25.234375 187.96875 24.960938 188.75 24.6875 C 189.53125 24.414062 190.527344 24.042969 191.5625 23.59375 C 192.597656 23.144531 193.632812 22.714844 194.84375 21.71875 C 195.449219 21.210938 196.152344 20.507812 196.71875 19.375 C 197.285156 18.242188 197.617188 16.484375 197.1875 15 C 195.527344 9.179688 188.789062 5.136719 178.90625 7.1875 C 166.308594 9.804688 158.886719 17.109375 155.15625 25.625 C 155.058594 25.859375 155.097656 26.152344 155 26.40625 C 153.945312 20.488281 152.871094 14.21875 151.40625 10.15625 C 150.585938 7.910156 149.394531 5.683594 147.65625 3.75 C 145.917969 1.816406 143.4375 0 140 0 C 136.074219 0 132.089844 2.324219 130.78125 5.3125 C 129.472656 8.300781 129.902344 10.625 130 12.03125 C 131.660156 34.042969 128.808594 56.269531 125 69.0625 C 121.191406 56.269531 118.339844 34.042969 120 12.03125 C 120.117188 10.605469 120.527344 8.300781 119.21875 5.3125 C 117.910156 2.324219 113.925781 0 110 0 Z M 110 10.3125 C 110.019531 10.527344 110.058594 10.664062 110 11.40625 C 108.046875 37.265625 111.269531 61.972656 116.875 76.40625 C 107.773438 84.0625 100.507812 85.742188 94.6875 86.09375 C 94.511719 85.820312 94.296875 85.546875 94.0625 85.3125 C 92.128906 83.515625 86.015625 74.0625 72.65625 74.0625 C 68.222656 74.0625 64.335938 76.113281 62.03125 78.75 C 59.726562 81.386719 58.574219 84.472656 58.75 87.8125 C 58.75 87.96875 58.75 88.125 58.75 88.28125 C 58.75 88.28125 66.972656 136.679688 69.375 157.5 C 70.429688 166.582031 67.109375 172.949219 61.875 177.65625 C 56.640625 182.363281 49.199219 185 42.65625 185 C 37.714844 185 31.015625 182.871094 25.9375 178.4375 C 20.859375 174.003906 17.1875 167.480469 17.1875 158.125 C 17.1875 154.570312 19.453125 145.195312 21.875 135.9375 C 24.296875 126.679688 26.875 117.636719 26.875 110.78125 C 26.875 106.972656 26.523438 103.320312 25.78125 100 C 25.390625 98.320312 24.140625 96.953125 22.5 96.40625 C 16.777344 94.492188 13.144531 89.335938 11.40625 84.0625 C 10.527344 81.425781 10.234375 78.925781 10.3125 77.03125 C 10.351562 75.9375 10.546875 75.214844 10.625 74.84375 C 18.535156 82.109375 30 93.300781 30 113.4375 C 30 117.421875 28.300781 124.257812 26.40625 131.5625 C 24.511719 138.867188 22.5 146.71875 22.5 154.21875 C 22.5 156.425781 22.285156 161.425781 25 166.25 C 27.714844 171.074219 33.808594 175 42.65625 175 C 45.429688 175 48.867188 174.335938 52.96875 172.03125 C 57.070312 169.726562 61.40625 164.882812 61.40625 158.125 C 61.40625 154.492188 60.703125 149.160156 59.6875 142.1875 C 58.671875 135.214844 57.324219 126.875 55.9375 118.90625 C 53.164062 102.949219 50.332031 88.203125 49.84375 85.78125 C 48.59375 79.570312 50.019531 74.824219 53.59375 71.25 C 57.167969 67.675781 63.378906 65.15625 72.1875 65.15625 C 72.109375 65.15625 72.558594 65.273438 73.75 65.3125 C 75.996094 65.371094 78.007812 63.925781 78.671875 61.777344 C 79.316406 59.628906 78.457031 57.304688 76.5625 56.09375 C 75.761719 55.585938 74.882812 55.703125 74.0625 55.3125 C 67.5 52.207031 60.703125 52.03125 55.15625 50.625 C 48.90625 49.042969 44.179688 46.679688 40.46875 35.9375 C 40.117188 34.921875 40.097656 32.421875 40 30.15625 C 42.1875 35.722656 45.136719 39.550781 48.75 41.875 C 52.363281 44.199219 56.191406 44.726562 59.53125 45 C 66.191406 45.546875 71.054688 44.980469 76.71875 49.84375 C 78.320312 51.171875 80.605469 51.367188 82.421875 50.332031 C 84.21875 49.277344 85.195312 47.226562 84.84375 45.15625 C 83.476562 38.535156 83.808594 34.160156 81.71875 29.21875 C 79.746094 24.550781 75.410156 20.878906 68.125 16.875 C 68.554688 16.914062 68.554688 16.777344 69.0625 16.875 C 79.121094 18.964844 82.792969 23.046875 85.625 29.53125 C 88.457031 36.015625 89.707031 45.273438 92.34375 55.15625 C 92.96875 57.675781 95.410156 59.316406 97.988281 58.90625 C 100.546875 58.496094 102.382812 56.191406 102.1875 53.59375 C 101.914062 45.917969 105.078125 21.5625 107.96875 13.59375 C 108.398438 12.421875 109.082031 11.132812 109.6875 10.46875 C 109.824219 10.3125 109.902344 10.390625 110 10.3125 Z M 140 10.3125 C 140.097656 10.390625 140.175781 10.3125 140.3125 10.46875 C 140.917969 11.132812 141.601562 12.421875 142.03125 13.59375 C 144.921875 21.5625 148.085938 45.917969 147.8125 53.59375 C 147.714844 56.152344 149.570312 58.359375 152.109375 58.710938 C 154.628906 59.082031 157.03125 57.480469 157.65625 55 C 160.292969 45.117188 161.542969 36.015625 164.375 29.53125 C 167.207031 23.046875 170.878906 18.964844 180.9375 16.875 C 181.542969 16.757812 181.523438 17.070312 182.03125 17.03125 C 174.335938 21.40625 169.882812 26.582031 168.125 32.1875 C 166.289062 38.085938 166.503906 43.496094 165.15625 50 C 164.726562 52.089844 165.664062 54.238281 167.480469 55.332031 C 169.316406 56.425781 171.660156 56.230469 173.28125 54.84375 C 179.199219 49.765625 184.726562 49.257812 191.40625 47.34375 C 198.085938 45.429688 205.664062 41.132812 210 30.15625 C 209.902344 32.382812 209.882812 34.921875 209.53125 35.9375 C 205.820312 46.679688 201.09375 49.042969 194.84375 50.625 C 189.296875 52.03125 182.5 52.207031 175.9375 55.3125 C 175.117188 55.703125 174.238281 55.585938 173.4375 56.09375 C 171.542969 57.304688 170.683594 59.628906 171.328125 61.777344 C 171.992188 63.925781 174.003906 65.371094 176.25 65.3125 C 177.441406 65.273438 177.890625 65.15625 177.8125 65.15625 C 186.621094 65.15625 192.832031 67.675781 196.40625 71.25 C 199.980469 74.824219 201.40625 79.570312 200.15625 85.78125 C 199.667969 88.203125 196.835938 102.949219 194.0625 118.90625 C 192.675781 126.875 191.328125 135.214844 190.3125 142.1875 C 189.296875 149.160156 188.59375 154.492188 188.59375 158.125 C 188.59375 164.882812 192.929688 169.726562 197.03125 172.03125 C 201.132812 174.335938 204.570312 175 207.34375 175 C 216.191406 175 222.285156 171.074219 225 166.25 C 227.714844 161.425781 227.5 156.425781 227.5 154.21875 C 227.5 146.71875 225.488281 138.867188 223.59375 131.5625 C 221.699219 124.257812 220 117.421875 220 113.4375 C 220 93.300781 231.464844 82.109375 239.375 74.84375 C 239.453125 75.214844 239.648438 75.9375 239.6875 77.03125 C 239.765625 78.925781 239.472656 81.425781 238.59375 84.0625 C 236.855469 89.335938 233.222656 94.492188 227.5 96.40625 C 225.859375 96.953125 224.609375 98.320312 224.21875 100 C 223.476562 103.320312 223.125 106.972656 223.125 110.78125 C 223.125 117.636719 225.703125 126.679688 228.125 135.9375 C 230.546875 145.195312 232.8125 154.570312 232.8125 158.125 C 232.8125 167.480469 229.140625 174.003906 224.0625 178.4375 C 218.984375 182.871094 212.285156 185 207.34375 185 C 200.800781 185 193.359375 182.363281 188.125 177.65625 C 182.890625 172.949219 179.570312 166.582031 180.625 157.5 C 183.027344 136.679688 191.25 88.28125 191.25 88.28125 C 191.25 88.125 191.25 87.96875 191.25 87.8125 C 191.425781 84.472656 190.273438 81.386719 187.96875 78.75 C 185.664062 76.113281 181.777344 74.0625 177.34375 74.0625 C 164.199219 74.0625 158.125 83.164062 156.09375 85.15625 C 149.628906 84.921875 141.894531 83.496094 133.125 76.40625 C 138.730469 61.972656 141.953125 37.265625 140 11.40625 C 139.941406 10.664062 139.980469 10.527344 140 10.3125 Z M 124.6875 82.03125 C 136.464844 92.304688 148.222656 94.960938 156.71875 95.15625 C 160.800781 95.253906 163.808594 94.902344 165.9375 94.84375 C 165.820312 94.980469 165.9375 95 165.78125 95.15625 C 164.257812 96.875 161.132812 99.824219 157.8125 104.84375 C 151.171875 114.882812 143.632812 133.144531 139.375 171.875 C 137.851562 185.820312 135.546875 197.382812 132.65625 205 C 131.210938 208.808594 129.511719 211.601562 128.125 213.125 C 126.738281 214.648438 125.976562 215 125 215 C 124.179688 215 123.339844 214.6875 121.875 212.96875 C 120.410156 211.25 118.691406 208.28125 117.1875 204.21875 C 114.199219 196.09375 111.835938 183.90625 110.3125 170 C 106.699219 136.835938 99.238281 119.6875 93.125 109.375 C 90.058594 104.21875 87.480469 100.644531 86.25 98.4375 C 85.527344 97.128906 85.800781 96.601562 85.78125 95.9375 C 87.773438 96.035156 90.761719 96.289062 94.6875 96.09375 C 102.460938 95.703125 113.183594 91.992188 124.6875 82.03125 Z M 102.96875 100.3125 C 102.96875 100.3125 104.804688 112.1875 108.90625 115 C 112.988281 117.832031 119.101562 111.992188 119.53125 111.5625 Z M 146.71875 100.3125 L 130.15625 111.5625 C 130.585938 111.992188 136.875 117.8125 140.9375 115 C 145 112.1875 146.71875 100.3125 146.71875 100.3125 Z M 146.09375 194.0625 C 148.476562 196.132812 150.507812 198.085938 151.875 199.6875 C 154.21875 202.421875 155 204.179688 155 206.40625 C 155 210.058594 153.28125 212.636719 150.3125 215.46875 C 147.34375 218.300781 143.398438 220.78125 140 223.75 C 136.074219 227.1875 133.515625 231.738281 130.9375 235.15625 C 128.359375 238.574219 126.445312 240 125 240 C 123.554688 240 121.640625 238.574219 119.0625 235.15625 C 116.484375 231.738281 113.925781 227.1875 110 223.75 C 106.601562 220.78125 102.65625 218.300781 99.6875 215.46875 C 96.71875 212.636719 95 210.058594 95 206.40625 C 95 205.625 97.050781 201.191406 100.3125 197.65625 C 101.484375 196.386719 102.8125 195.273438 104.0625 194.21875 C 105.136719 199.160156 106.367188 203.710938 107.8125 207.65625 C 109.570312 212.402344 111.542969 216.40625 114.21875 219.53125 C 116.894531 222.65625 120.722656 225 125 225 C 129.121094 225 132.929688 222.949219 135.625 220 C 138.320312 217.050781 140.3125 213.125 142.03125 208.59375 C 143.632812 204.394531 144.941406 199.492188 146.09375 194.0625 Z M 146.09375 194.0625 "/>
</g>
</svg>
