<?xml version="1.0" encoding="UTF-8"?>
<svg xmlns="http://www.w3.org/2000/svg" xmlns:xlink="http://www.w3.org/1999/xlink" viewBox="0 0 250 250" width="250px" height="250px">
<g id="surface107260714">
<path style=" stroke:none;fill-rule:nonzero;fill:#ffba08;fill-opacity:1;" d="M 106.40625 2.96875 C 105.859375 3.046875 105.332031 3.203125 104.84375 3.4375 C 91.09375 9.765625 84.492188 20.117188 81.71875 29.0625 C 80.957031 31.523438 80.917969 33.457031 80.625 35.625 C 80.097656 34.785156 79.550781 34.238281 79.0625 33.28125 C 76.269531 27.8125 74.316406 20.78125 74.53125 14.6875 C 74.648438 12.636719 73.496094 10.722656 71.640625 9.863281 C 69.785156 9.003906 67.578125 9.375 66.09375 10.78125 C 49.667969 25.859375 48.535156 42.773438 51.71875 55 C 53.085938 60.273438 55.019531 64.335938 56.71875 67.8125 C 56.015625 67.441406 55.410156 67.382812 54.6875 66.875 C 50.683594 64.023438 46.757812 59.199219 45.46875 51.25 C 45.195312 49.023438 43.457031 47.246094 41.230469 46.933594 C 39.023438 46.601562 36.855469 47.792969 35.9375 49.84375 C 24.980469 72.792969 27.695312 87.675781 33.28125 97.65625 C 36.074219 102.65625 39.316406 106.464844 41.40625 109.6875 C 43.496094 112.910156 44.394531 115.097656 44.0625 117.96875 C 44.0625 118.125 44.0625 118.28125 44.0625 118.4375 C 43.59375 138.417969 34.414062 149.589844 25.3125 156.40625 C 16.210938 163.222656 7.5 165.15625 7.5 165.15625 C 6.113281 165.449219 4.921875 166.308594 4.199219 167.519531 C 3.496094 168.75 3.320312 170.214844 3.75 171.5625 C 3.75 171.5625 5.917969 178.125 11.5625 184.21875 C 16.25 189.257812 23.90625 193.828125 34.0625 194.375 C 31.757812 204.570312 21.40625 210 21.40625 210 C 19.726562 210.820312 18.632812 212.519531 18.59375 214.414062 C 18.574219 216.289062 19.589844 218.027344 21.25 218.90625 C 21.25 218.90625 41.679688 228.710938 60.78125 220 C 60.644531 230.898438 55.78125 236.71875 55.78125 236.71875 C 54.472656 238.222656 54.179688 240.332031 55.039062 242.128906 C 55.878906 243.925781 57.695312 245.058594 59.6875 245 C 77.128906 244.53125 88.535156 235.058594 93.28125 230.78125 C 93.359375 230.917969 93.359375 230.800781 93.4375 230.9375 C 94.648438 233.164062 95.859375 236.992188 94.53125 244.0625 C 94.238281 245.605469 94.667969 247.1875 95.722656 248.359375 C 96.757812 249.511719 98.28125 250.117188 99.84375 250 C 102.578125 249.765625 105.039062 248.828125 107.96875 247.5 C 110.898438 246.171875 114.121094 244.394531 117.34375 242.34375 C 121.875 239.453125 125.996094 235.898438 129.53125 232.03125 C 137.734375 240.46875 150.078125 243.710938 163.90625 240.9375 C 165.9375 240.527344 167.519531 238.90625 167.871094 236.875 C 168.222656 234.824219 167.265625 232.773438 165.46875 231.71875 C 165.46875 231.71875 162.148438 229.667969 159.375 225.78125 C 156.601562 221.894531 154.492188 216.914062 157.1875 209.21875 C 158.847656 204.707031 159.921875 204.082031 159.53125 204.21875 C 159.960938 204.296875 160.917969 204.570312 162.1875 205 C 164.726562 205.859375 168.710938 207.03125 173.59375 206.40625 C 178.261719 205.820312 183.691406 203.496094 189.84375 198.90625 C 190.253906 199.609375 190.722656 200.722656 191.25 202.65625 C 192.558594 207.558594 192.96875 213.75 192.96875 213.75 C 193.046875 215.800781 194.355469 217.597656 196.289062 218.28125 C 198.203125 218.964844 200.371094 218.417969 201.71875 216.875 C 201.71875 216.875 207.246094 210.761719 212.96875 203.125 C 218.691406 195.488281 224.84375 186.933594 225.9375 178.59375 C 226.113281 177.460938 225.898438 176.308594 225.3125 175.3125 C 220.722656 167.851562 213.164062 164.472656 205.625 163.125 C 206.621094 158.652344 207.03125 151.71875 203.4375 144.53125 C 198.4375 156.523438 189.53125 162.5 189.53125 162.5 C 186.503906 162.65625 183.496094 162.773438 180.78125 162.96875 C 180.722656 162.96875 180.683594 162.96875 180.625 162.96875 C 174.628906 163.300781 169.84375 163.066406 166.5625 162.1875 C 163.242188 161.308594 161.542969 160.039062 160.3125 158.125 C 157.851562 154.316406 157.5 145.058594 161.875 128.75 C 161.875 128.691406 161.875 128.652344 161.875 128.59375 C 163.261719 122.65625 167.734375 117.246094 172.5 115.625 C 177.265625 114.003906 182.871094 114.804688 189.53125 123.90625 C 194.960938 131.445312 203.183594 135 210.78125 136.40625 C 211.738281 139.902344 212.714844 145.292969 212.96875 153.4375 C 218.671875 149.941406 222.617188 142.1875 224.84375 136.71875 C 224.941406 136.699219 225.058594 136.738281 225.15625 136.71875 C 228.476562 136.269531 230.820312 136.035156 233.4375 134.0625 C 234.375 133.359375 239.492188 130.78125 242.34375 124.21875 C 245.078125 117.96875 246.464844 107.8125 245.9375 90.3125 C 247.34375 88.632812 249.101562 86.464844 249.53125 82.65625 C 249.785156 80.332031 249.121094 77.675781 247.5 75.625 C 245.917969 73.632812 243.730469 72.050781 240.9375 70.625 C 240.898438 70.605469 240.820312 70.488281 240.78125 70.46875 C 233.222656 66.191406 220.332031 62.089844 202.03125 59.0625 C 200.136719 55.136719 198.085938 51.230469 195.78125 48.4375 C 192.890625 44.941406 190.644531 42.753906 188.125 41.25 C 185.234375 39.433594 183.105469 39.375 179.53125 38.90625 C 175.957031 38.4375 171.386719 38.105469 166.25 37.8125 C 155.976562 37.246094 143.066406 37.03125 130 37.03125 C 126.328125 37.03125 119.316406 35.15625 115 31.09375 C 110.683594 27.03125 107.910156 21.210938 111.71875 9.53125 C 112.265625 7.910156 111.933594 6.113281 110.859375 4.785156 C 109.785156 3.457031 108.105469 2.773438 106.40625 2.96875 Z M 100.3125 19.0625 C 100.429688 27.304688 103.496094 34.0625 108.125 38.4375 C 114.941406 44.863281 123.671875 47.03125 130 47.03125 C 142.929688 47.03125 155.800781 47.265625 165.78125 47.8125 C 170.761719 48.085938 174.980469 48.496094 178.125 48.90625 C 180.488281 49.21875 182.519531 49.804688 182.96875 49.84375 C 182.949219 49.84375 185.605469 51.972656 187.96875 54.84375 C 190.332031 57.714844 192.890625 61.503906 194.375 65.3125 C 195.019531 66.972656 196.523438 68.164062 198.28125 68.4375 C 217.363281 71.367188 230 75.898438 236.09375 79.375 C 236.152344 79.433594 236.191406 79.472656 236.25 79.53125 C 238.339844 80.585938 239.277344 81.386719 239.53125 81.71875 C 239.453125 81.757812 238.632812 83.339844 237.03125 85.46875 C 236.289062 86.40625 235.898438 87.558594 235.9375 88.75 C 236.679688 107.148438 235.058594 116.09375 233.28125 120.15625 C 231.503906 124.21875 230.566406 123.632812 227.5 125.9375 C 228.125 125.46875 226.191406 126.542969 223.75 126.875 C 221.308594 127.207031 218.144531 127.265625 214.84375 126.875 C 208.222656 126.113281 201.386719 123.554688 197.5 118.125 C 189.160156 106.738281 178.242188 103.242188 169.375 106.25 C 160.566406 109.238281 154.335938 117.246094 152.1875 126.25 C 152.167969 126.289062 152.207031 126.367188 152.1875 126.40625 C 147.617188 143.496094 146.464844 155.195312 151.875 163.59375 C 154.589844 167.8125 158.925781 170.546875 163.90625 171.875 C 168.886719 173.203125 174.589844 173.359375 181.25 172.96875 C 181.308594 172.96875 181.347656 172.96875 181.40625 172.96875 C 188.496094 172.460938 196.074219 171.777344 202.5 172.65625 C 208.027344 173.417969 212.128906 175.449219 215.15625 179.0625 C 214.042969 182.871094 209.941406 190.429688 205 197.03125 C 203.085938 199.589844 202.890625 199.707031 201.25 201.71875 C 201.09375 200.957031 201.132812 200.917969 200.9375 200.15625 C 200.097656 196.972656 199.179688 193.808594 196.5625 191.09375 C 195.253906 189.746094 193.183594 188.398438 190.78125 188.28125 C 188.4375 188.183594 186.25 189.316406 184.53125 190.625 L 184.375 190.625 L 184.375 190.46875 C 178.867188 194.707031 175.097656 196.210938 172.34375 196.5625 C 169.589844 196.914062 167.734375 196.230469 165.46875 195.46875 C 164.335938 195.078125 163.125 194.6875 161.5625 194.375 C 160 194.0625 157.8125 194.003906 155.78125 194.84375 C 151.738281 196.542969 149.84375 200.214844 147.8125 205.78125 C 144.121094 216.269531 147.011719 225.175781 150.9375 230.9375 C 143.574219 230.195312 137.382812 227.734375 133.75 221.875 C 132.8125 220.371094 131.171875 219.472656 129.414062 219.511719 C 127.636719 219.550781 126.035156 220.507812 125.15625 222.03125 C 123.222656 225.371094 117.714844 230.273438 112.03125 233.90625 C 109.472656 235.546875 106.933594 236.914062 104.6875 237.96875 C 104.550781 233.125 103.867188 228.90625 102.34375 226.09375 C 100.039062 221.835938 96.5625 219.6875 96.5625 219.6875 C 94.589844 218.515625 92.089844 218.847656 90.46875 220.46875 C 90.46875 220.46875 80.800781 229.160156 68.59375 232.96875 C 70.507812 227.578125 71.972656 220.546875 70.46875 211.71875 C 70.195312 209.941406 69.003906 208.4375 67.324219 207.792969 C 65.644531 207.148438 63.730469 207.441406 62.34375 208.59375 C 52.382812 216.621094 42.03125 214.902344 34.53125 212.65625 C 40.078125 207.851562 45.683594 200.683594 45 189.21875 C 44.921875 187.832031 44.277344 186.542969 43.203125 185.644531 C 42.148438 184.765625 40.761719 184.355469 39.375 184.53125 C 28.964844 185.839844 23.007812 181.914062 18.90625 177.5 C 16.777344 175.195312 16.835938 174.550781 15.9375 172.8125 C 20.097656 171.25 25.585938 168.75 31.40625 164.375 C 42.226562 156.269531 53.222656 141.777344 53.90625 119.0625 C 53.90625 118.886719 54.0625 118.769531 54.0625 118.59375 L 53.90625 118.59375 C 54.394531 112.929688 52.207031 108.125 49.6875 104.21875 C 47.089844 100.195312 44.238281 96.757812 42.03125 92.8125 C 38.554688 86.601562 36.425781 79.023438 40.46875 65.9375 C 42.851562 69.765625 45.839844 72.8125 48.90625 75 C 51.894531 77.128906 54.902344 78.476562 57.8125 79.21875 C 60.722656 79.960938 63.496094 80.371094 66.40625 79.21875 C 67.304688 78.828125 68.066406 78.164062 68.59375 77.34375 C 69.863281 75.566406 69.6875 73.886719 69.53125 72.8125 C 69.375 71.738281 69.0625 70.9375 68.75 70.15625 C 68.125 68.613281 67.441406 67.089844 66.5625 65.3125 C 64.785156 61.757812 62.695312 57.441406 61.40625 52.5 C 59.394531 44.746094 59.257812 36.015625 65.9375 26.40625 C 66.953125 30.507812 68.378906 34.492188 70.15625 37.96875 C 71.894531 41.367188 73.90625 44.316406 76.09375 46.71875 C 78.28125 49.121094 80.585938 51.113281 83.90625 51.875 C 85.527344 52.265625 87.226562 51.816406 88.457031 50.683594 C 89.667969 49.550781 90.253906 47.890625 90 46.25 C 89.804688 44.921875 89.140625 38.847656 91.25 32.03125 C 92.617188 27.636719 95.78125 23.203125 100.3125 19.0625 Z M 161.5625 72.03125 C 161.5625 72.03125 163.496094 84.492188 175 87.5 C 177.5 81.503906 183.4375 74.003906 185.9375 72.5 C 176.933594 73.496094 161.5625 72.03125 161.5625 72.03125 Z M 161.5625 72.03125 "/>
</g>
</svg>
