<?xml version="1.0" encoding="UTF-8"?>
<svg xmlns="http://www.w3.org/2000/svg" xmlns:xlink="http://www.w3.org/1999/xlink" viewBox="0 0 250 250" width="250px" height="250px">
<g id="surface110213942">
<path style=" stroke:none;fill-rule:nonzero;fill:#ffba08;fill-opacity:1;" d="M 123.28125 5 C 122.578125 4.921875 121.796875 5.019531 121.09375 5.15625 C 119.6875 5.429688 118.28125 6.210938 117.34375 7.34375 C 106.445312 20.625 106.152344 30.761719 105.9375 38.90625 C 102.558594 37.460938 99.121094 36.015625 96.09375 34.21875 C 90.996094 31.191406 87.011719 27.519531 85.3125 19.6875 C 84.6875 16.835938 81.933594 14.84375 79.375 14.6875 C 76.816406 14.53125 73.828125 16.40625 72.96875 19.21875 C 67.96875 35.703125 71.621094 45.195312 74.53125 52.8125 C 70.800781 52.773438 66.972656 52.851562 63.4375 52.34375 C 57.578125 51.503906 52.539062 49.550781 47.96875 42.96875 C 46.308594 40.585938 43.046875 39.628906 40.625 40.46875 C 38.203125 41.308594 36.113281 44.257812 36.40625 47.1875 C 38.085938 64.257812 45.019531 71.738281 50.625 77.65625 C 47.207031 79.042969 43.730469 80.371094 40.3125 81.25 C 34.570312 82.734375 29.238281 82.910156 22.5 78.59375 C 20.058594 77.03125 16.757812 77.519531 14.84375 79.21875 C 12.929688 80.917969 12.050781 84.433594 13.4375 87.03125 C 21.582031 102.265625 30.820312 106.367188 38.28125 109.6875 C 35.625 112.285156 32.832031 114.902344 30 117.03125 C 25.253906 120.585938 20.371094 122.832031 12.5 121.40625 C 9.628906 120.898438 6.738281 122.539062 5.625 124.84375 C 4.511719 127.148438 5.058594 130.78125 7.34375 132.65625 C 20.625 143.554688 30.761719 143.847656 38.90625 144.0625 C 37.460938 147.441406 36.015625 150.878906 34.21875 153.90625 C 31.191406 159.003906 27.519531 162.988281 19.6875 164.6875 C 16.835938 165.3125 14.84375 168.066406 14.6875 170.625 C 14.53125 173.183594 16.40625 176.171875 19.21875 177.03125 C 35.703125 182.03125 45.195312 178.378906 52.8125 175.46875 C 52.773438 179.199219 52.851562 183.027344 52.34375 186.5625 C 52.070312 188.4375 51.542969 190.15625 50.9375 191.875 L 6.40625 236.40625 C 4.414062 238.398438 4.414062 241.601562 6.40625 243.59375 C 8.398438 245.585938 11.601562 245.585938 13.59375 243.59375 L 44.21875 212.96875 C 45.15625 213.359375 46.152344 213.691406 47.1875 213.59375 L 47.8125 213.4375 C 64.394531 211.621094 71.835938 204.902344 77.65625 199.375 C 79.042969 202.792969 80.371094 206.269531 81.25 209.6875 C 82.734375 215.429688 82.910156 220.761719 78.59375 227.5 C 77.03125 229.941406 77.519531 233.242188 79.21875 235.15625 C 80.917969 237.070312 84.433594 237.949219 87.03125 236.5625 C 102.265625 228.417969 106.367188 219.179688 109.6875 211.71875 C 112.285156 214.375 114.902344 217.167969 117.03125 220 C 120.585938 224.746094 122.832031 229.628906 121.40625 237.5 C 120.898438 240.371094 122.539062 243.261719 124.84375 244.375 C 127.148438 245.488281 130.78125 244.941406 132.65625 242.65625 C 143.554688 229.375 143.847656 219.238281 144.0625 211.09375 C 147.441406 212.539062 150.878906 213.984375 153.90625 215.78125 C 159.003906 218.808594 162.988281 222.480469 164.6875 230.3125 C 165.3125 233.164062 168.066406 235.15625 170.625 235.3125 C 173.183594 235.46875 176.171875 233.59375 177.03125 230.78125 C 182.03125 214.296875 178.378906 204.804688 175.46875 197.1875 C 179.199219 197.226562 183.027344 197.148438 186.5625 197.65625 C 192.421875 198.496094 197.460938 200.449219 202.03125 207.03125 C 203.691406 209.433594 206.953125 210.371094 209.375 209.53125 C 211.796875 208.691406 213.886719 205.742188 213.59375 202.8125 C 211.914062 185.722656 204.980469 178.261719 199.375 172.34375 C 202.792969 170.957031 206.269531 169.628906 209.6875 168.75 C 215.429688 167.265625 220.761719 167.089844 227.5 171.40625 C 229.941406 172.96875 233.242188 172.480469 235.15625 170.78125 C 237.070312 169.082031 237.949219 165.566406 236.5625 162.96875 C 228.417969 147.734375 219.179688 143.632812 211.71875 140.3125 C 214.375 137.714844 217.167969 135.097656 220 132.96875 C 224.746094 129.414062 229.628906 127.167969 237.5 128.59375 C 240.371094 129.101562 243.261719 127.460938 244.375 125.15625 C 245.488281 122.851562 244.941406 119.21875 242.65625 117.34375 C 229.375 106.445312 219.238281 106.152344 211.09375 105.9375 C 212.539062 102.558594 213.984375 99.121094 215.78125 96.09375 C 218.808594 90.996094 222.480469 87.011719 230.3125 85.3125 C 233.164062 84.6875 235.15625 81.933594 235.3125 79.375 C 235.46875 76.816406 233.59375 73.828125 230.78125 72.96875 C 219.863281 69.667969 209.726562 70.898438 202.34375 72.8125 C 202.148438 72.871094 202.070312 72.910156 201.875 72.96875 C 201.015625 71.757812 199.667969 70.976562 198.183594 70.859375 C 196.71875 70.742188 195.253906 71.289062 194.21875 72.34375 L 188.59375 77.96875 L 185.625 80.78125 L 187.8125 84.21875 C 189.003906 86.035156 190.898438 86.484375 191.71875 86.5625 C 192.539062 86.640625 192.949219 86.464844 193.28125 86.40625 C 193.945312 86.289062 194.296875 86.230469 194.6875 86.09375 C 195.449219 85.820312 196.210938 85.371094 197.1875 85 C 199.121094 84.257812 201.71875 83.320312 204.84375 82.5 C 208.183594 81.640625 212.050781 81.152344 216.25 81.09375 C 212.363281 83.964844 209.296875 87.382812 207.1875 90.9375 C 203.300781 97.5 201.25 104.101562 199.21875 107.5 L 198.28125 109.21875 L 198.59375 110.9375 C 198.554688 110.742188 198.691406 110.859375 198.75 111.25 L 199.375 115 L 202.96875 115.46875 C 211.71875 116.582031 218.222656 114.707031 227.34375 119.21875 C 222.148438 120.292969 217.480469 122.304688 213.90625 125 C 207.8125 129.570312 203.476562 134.980469 200.3125 137.34375 L 198.90625 138.4375 L 198.4375 140.3125 C 198.417969 140.371094 198.300781 140.351562 198.28125 140.46875 L 197.5 144.21875 L 200.78125 145.9375 C 208.476562 150.3125 215.136719 151.269531 221.875 159.0625 C 216.601562 158.027344 211.5625 157.929688 207.1875 159.0625 C 199.804688 160.957031 193.671875 164.179688 189.84375 165.15625 L 187.96875 165.625 L 186.875 167.34375 C 186.855469 167.382812 186.933594 167.421875 186.875 167.5 L 184.6875 170.46875 L 186.875 173.4375 C 192.324219 180.449219 198.320312 183.652344 201.5625 193.4375 C 197.089844 190.46875 192.441406 188.457031 187.96875 187.8125 C 180.429688 186.738281 173.4375 187.441406 169.53125 186.875 L 167.65625 186.71875 L 166.09375 187.65625 C 166.074219 187.65625 166.015625 187.65625 165.78125 187.8125 L 162.8125 189.84375 L 163.75 193.4375 C 166.074219 201.953125 170.214844 207.167969 169.53125 217.34375 C 166.542969 212.96875 162.910156 209.453125 159.0625 207.1875 C 152.5 203.300781 145.898438 201.25 142.5 199.21875 L 140.78125 198.28125 L 139.0625 198.59375 C 139.296875 198.554688 139.042969 198.671875 138.59375 198.75 L 135 199.375 L 134.53125 202.96875 C 133.417969 211.71875 135.292969 218.222656 130.78125 227.34375 C 129.707031 222.148438 127.695312 217.480469 125 213.90625 C 120.429688 207.8125 115.019531 203.476562 112.65625 200.3125 L 111.5625 198.90625 L 109.84375 198.4375 C 109.863281 198.476562 109.785156 198.457031 109.6875 198.4375 C 109.628906 198.417969 109.648438 198.300781 109.53125 198.28125 L 105.78125 197.5 L 104.0625 200.78125 C 99.6875 208.476562 98.730469 215.136719 90.9375 221.875 C 91.972656 216.601562 92.070312 211.5625 90.9375 207.1875 C 89.042969 199.804688 85.820312 193.671875 84.84375 189.84375 L 84.375 187.96875 L 82.8125 187.03125 C 82.832031 187.011719 82.792969 186.972656 82.65625 186.875 C 82.617188 186.855469 82.578125 186.933594 82.5 186.875 L 79.53125 184.6875 L 76.5625 186.875 C 69.550781 192.324219 66.347656 198.320312 56.5625 201.5625 C 57.070312 200.800781 57.519531 200 57.96875 199.21875 L 58.4375 198.75 C 59.433594 197.8125 59.980469 196.523438 60 195.15625 C 61.074219 192.714844 61.835938 190.371094 62.1875 187.96875 C 63.261719 180.429688 62.558594 173.4375 63.125 169.53125 L 63.28125 167.65625 L 62.34375 166.09375 C 62.34375 166.113281 62.304688 166.113281 62.1875 165.9375 C 62.148438 165.878906 62.246094 165.878906 62.1875 165.78125 L 60.15625 162.8125 L 56.5625 163.75 C 48.046875 166.074219 42.832031 170.214844 32.65625 169.53125 C 37.03125 166.542969 40.546875 162.910156 42.8125 159.0625 C 46.699219 152.5 48.75 145.898438 50.78125 142.5 L 51.71875 140.78125 L 51.40625 139.0625 C 51.445312 139.296875 51.328125 139.042969 51.25 138.59375 L 50.625 135 L 47.03125 134.53125 C 38.28125 133.417969 31.777344 135.292969 22.65625 130.78125 C 27.851562 129.707031 32.519531 127.695312 36.09375 125 C 42.1875 120.429688 46.523438 115.019531 49.6875 112.65625 L 51.09375 111.5625 L 51.5625 109.84375 C 51.523438 109.863281 51.542969 109.785156 51.5625 109.6875 C 51.582031 109.628906 51.699219 109.648438 51.71875 109.53125 L 52.5 105.78125 L 49.21875 104.0625 C 41.523438 99.6875 34.863281 98.730469 28.125 90.9375 C 33.398438 91.972656 38.4375 92.070312 42.8125 90.9375 C 50.195312 89.042969 56.328125 85.820312 60.15625 84.84375 L 62.03125 84.375 L 62.96875 82.8125 C 62.949219 82.792969 62.988281 82.695312 63.125 82.5 L 65.3125 79.53125 L 63.125 76.5625 C 57.675781 69.550781 51.679688 66.347656 48.4375 56.5625 C 52.910156 59.53125 57.558594 61.542969 62.03125 62.1875 C 69.570312 63.261719 76.5625 62.558594 80.46875 63.125 L 82.34375 63.28125 L 83.90625 62.34375 C 83.886719 62.34375 83.886719 62.304688 84.0625 62.1875 C 84.121094 62.148438 84.121094 62.246094 84.21875 62.1875 L 87.1875 60.15625 L 86.25 56.5625 C 83.925781 48.046875 79.785156 42.832031 80.46875 32.65625 C 83.457031 37.03125 87.089844 40.546875 90.9375 42.8125 C 97.5 46.699219 104.101562 48.75 107.5 50.78125 L 109.21875 51.71875 L 110.9375 51.40625 C 110.703125 51.445312 110.957031 51.328125 111.40625 51.25 L 115 50.625 L 115.46875 47.03125 C 116.582031 38.28125 114.707031 31.777344 119.21875 22.65625 C 120.292969 27.851562 122.304688 32.519531 125 36.09375 C 129.570312 42.1875 134.980469 46.523438 137.34375 49.6875 L 138.4375 51.09375 L 140.15625 51.5625 C 140.175781 51.601562 140.253906 51.679688 140.46875 51.71875 L 144.21875 52.5 L 145.9375 49.21875 C 150.3125 41.523438 151.269531 34.863281 159.0625 28.125 C 158.027344 33.398438 157.929688 38.4375 159.0625 42.8125 C 160.957031 50.195312 164.179688 56.328125 165.15625 60.15625 L 165.625 62.03125 L 167.34375 63.125 C 167.382812 63.144531 167.421875 63.066406 167.5 63.125 L 170.46875 65.3125 L 173.4375 63.125 C 180.761719 57.441406 183.984375 51.269531 194.84375 48.125 L 147.5 95.3125 C 146.699219 95.097656 145.859375 95 145 95 C 139.472656 95 135 99.472656 135 105 C 135 110.527344 139.472656 115 145 115 C 150.527344 115 155 110.527344 155 105 C 155 104.140625 154.902344 103.300781 154.6875 102.5 L 217.03125 40 L 235 40 C 237.382812 39.960938 239.394531 38.261719 239.84375 35.9375 L 244.84375 10.9375 C 245.15625 9.375 244.6875 7.753906 243.613281 6.582031 C 242.539062 5.410156 240.957031 4.824219 239.375 5 C 239.277344 5.039062 239.160156 5.097656 239.0625 5.15625 L 214.0625 10.15625 C 211.738281 10.605469 210.039062 12.617188 210 15 L 210 32.96875 L 205.78125 37.1875 C 204.902344 36.621094 203.867188 36.347656 202.8125 36.40625 C 185.742188 38.085938 178.261719 45.019531 172.34375 50.625 C 170.957031 47.207031 169.628906 43.730469 168.75 40.3125 C 167.265625 34.570312 167.089844 29.238281 171.40625 22.5 C 172.96875 20.058594 172.480469 16.757812 170.78125 14.84375 C 169.082031 12.929688 165.566406 12.050781 162.96875 13.4375 C 147.734375 21.582031 143.632812 30.820312 140.3125 38.28125 C 137.714844 35.625 135.097656 32.832031 132.96875 30 C 129.414062 25.253906 127.167969 20.371094 128.59375 12.5 C 129.101562 9.628906 127.460938 6.738281 125.15625 5.625 C 124.589844 5.351562 123.984375 5.078125 123.28125 5 Z M 233.75 16.25 L 230.9375 30 L 220 30 L 220 19.0625 Z M 233.75 16.25 "/>
</g>
</svg>
