<?xml version="1.0" encoding="UTF-8"?>
<svg xmlns="http://www.w3.org/2000/svg" xmlns:xlink="http://www.w3.org/1999/xlink" viewBox="0 0 250 250" width="250px" height="250px">
<g id="surface110211743">
<path style=" stroke:none;fill-rule:nonzero;fill:#ffba08;fill-opacity:1;" d="M 59.6875 9.53125 C 57.050781 10 55.253906 12.5 55.625 15.15625 C 56.777344 24.082031 58.59375 30.390625 62.1875 35.15625 C 65.644531 39.746094 70.46875 42.363281 75.78125 44.21875 C 65.585938 45.097656 59.511719 34.648438 50 29.6875 C 43.789062 26.464844 37.65625 27.8125 32.03125 27.03125 C 26.40625 26.25 21.738281 24.707031 17.65625 17.5 C 16.660156 15.722656 14.667969 14.746094 12.65625 15 C 11.289062 15.195312 10.058594 15.9375 9.257812 17.050781 C 8.457031 18.183594 8.164062 19.589844 8.4375 20.9375 C 10.605469 31.660156 13.398438 39.316406 17.96875 44.84375 C 22.539062 50.371094 28.808594 53.144531 36.09375 54.21875 C 38.925781 54.648438 39.960938 55.410156 41.09375 56.5625 C 42.226562 57.714844 43.378906 59.628906 45.15625 62.03125 C 46.933594 64.433594 49.628906 67.304688 53.59375 69.21875 C 54.414062 69.609375 55.957031 69.53125 56.875 69.84375 C 54.433594 71.230469 52.089844 72.65625 49.375 74.0625 C 41.152344 78.339844 33.125 82.03125 33.125 82.03125 C 31.542969 82.753906 30.449219 84.21875 30.234375 85.9375 C 30 87.65625 30.683594 89.375 32.03125 90.46875 C 32.03125 90.46875 35.488281 93.457031 39.84375 96.40625 C 40.957031 97.148438 42.226562 97.734375 43.4375 98.4375 C 35.742188 103.085938 26.09375 108.90625 26.09375 108.90625 C 24.414062 109.765625 23.359375 111.484375 23.359375 113.359375 C 23.359375 115.234375 24.414062 116.953125 26.09375 117.8125 C 26.09375 117.8125 29.550781 119.453125 33.90625 121.25 C 34.746094 121.601562 35.820312 121.679688 36.71875 122.03125 C 28.90625 127.03125 19.0625 133.4375 19.0625 133.4375 C 17.675781 134.277344 16.777344 135.722656 16.660156 137.34375 C 16.523438 138.945312 17.1875 140.527344 18.4375 141.5625 C 18.4375 141.5625 21.015625 143.613281 24.375 145.78125 C 25.136719 146.269531 26.210938 146.542969 27.03125 147.03125 C 19.394531 152.167969 10.15625 158.28125 10.15625 158.28125 C 8.613281 159.121094 7.617188 160.722656 7.558594 162.480469 C 7.480469 164.257812 8.359375 165.917969 9.84375 166.875 C 9.84375 166.875 12.246094 168.496094 15.3125 170.3125 C 15.800781 170.605469 16.367188 170.800781 16.875 171.09375 C 10.195312 175.742188 2.03125 181.5625 2.03125 181.5625 C 0.976562 182.363281 0.273438 183.554688 0.0976562 184.882812 C -0.078125 186.210938 0.273438 187.539062 1.09375 188.59375 C 1.09375 188.59375 14.042969 205.46875 23.4375 214.21875 C 41.40625 230.957031 66.933594 236.777344 87.96875 238.90625 C 109.003906 241.035156 125.9375 239.21875 125.9375 239.21875 C 127.8125 238.984375 129.394531 237.695312 130.019531 235.917969 C 130.664062 234.121094 130.214844 232.148438 128.90625 230.78125 L 120.9375 222.8125 L 128.75 218.59375 C 130.097656 217.910156 131.074219 216.640625 131.367188 215.136719 C 131.679688 213.652344 131.289062 212.109375 130.3125 210.9375 L 121.25 200.15625 L 128.59375 194.53125 C 129.746094 193.671875 130.488281 192.363281 130.605469 190.917969 C 130.722656 189.492188 130.214844 188.066406 129.21875 187.03125 C 129.21875 187.03125 127.089844 184.785156 124.84375 181.40625 C 122.597656 178.027344 120.410156 173.535156 120.3125 170 C 120.253906 167.363281 120.78125 163.183594 121.71875 160.3125 C 122.1875 158.867188 122.753906 157.910156 123.125 157.5 C 123.496094 157.089844 123.242188 157.1875 123.28125 157.1875 C 124.0625 157.1875 124.0625 157.363281 124.21875 157.5 C 124.375 157.636719 124.726562 158.007812 125 158.90625 C 125.546875 160.722656 125.527344 164.101562 125.15625 166.875 C 124.882812 168.945312 125.9375 170.957031 127.773438 171.933594 C 129.628906 172.910156 131.875 172.636719 133.4375 171.25 C 140.683594 164.707031 143.515625 157.324219 145.15625 151.71875 C 145.976562 148.90625 146.621094 146.582031 147.1875 145 C 147.617188 143.808594 147.988281 143.457031 148.28125 143.125 C 148.925781 144.121094 149.941406 146.289062 150.46875 149.53125 C 150.722656 151.210938 151.816406 152.636719 153.359375 153.339844 C 154.902344 154.023438 156.699219 153.886719 158.125 152.96875 C 165.761719 147.695312 168.574219 140.410156 171.09375 135.9375 C 172.363281 133.710938 173.496094 132.207031 174.84375 131.25 C 176.054688 130.390625 177.792969 129.804688 180.625 129.6875 C 180.898438 130.058594 181.484375 130.917969 181.875 132.1875 C 182.695312 134.863281 183.007812 138.769531 182.65625 141.875 C 182.382812 143.984375 183.476562 146.015625 185.390625 146.972656 C 187.285156 147.929688 189.570312 147.578125 191.09375 146.09375 C 192.773438 144.53125 193.964844 142.714844 195.46875 140.3125 C 196.972656 137.910156 198.535156 135.097656 200 132.03125 C 202.949219 125.917969 205.625 119.394531 205.625 113.28125 C 205.644531 112.519531 205.46875 111.777344 205.15625 111.09375 C 205.15625 111.09375 203.574219 108.457031 200.625 105.9375 C 200.585938 102.03125 200.234375 97.597656 199.0625 95.3125 C 198.085938 97.480469 196.152344 100.058594 194.375 102.1875 C 191.425781 100.9375 187.832031 99.980469 183.4375 99.6875 C 182.753906 96.914062 181.855469 94.140625 180.46875 92.96875 C 180.039062 95.019531 178.789062 97.695312 177.65625 99.84375 C 174.84375 100.195312 171.933594 100.898438 168.90625 101.875 C 167.1875 98.867188 165.039062 95.722656 162.96875 94.84375 C 163.261719 97.792969 162.617188 101.445312 162.03125 104.21875 C 160.546875 104.765625 159.023438 105.371094 157.5 105.9375 C 156.660156 106.25 155.839844 106.425781 155 106.71875 C 153.339844 103.4375 151.054688 99.960938 148.90625 98.90625 C 149.0625 102.441406 147.949219 106.796875 147.1875 109.53125 C 145.351562 110.136719 143.554688 110.78125 141.875 111.25 C 140.527344 107.558594 138.457031 102.832031 136.09375 101.40625 C 135.9375 105.371094 134.023438 110.917969 133.28125 112.8125 C 131.621094 112.949219 130.019531 112.988281 128.4375 112.96875 C 128.359375 109.101562 127.832031 104.101562 126.09375 102.03125 C 124.667969 105.703125 120.996094 110.019531 119.6875 111.5625 C 119.160156 111.386719 118.574219 111.308594 118.125 111.09375 C 114.257812 109.238281 112.03125 106.738281 112.03125 99.375 C 112.03125 94.042969 112.890625 91.328125 114.84375 89.53125 C 116.621094 91.796875 118.574219 94.511719 119.53125 96.875 C 121.171875 94.882812 121.621094 90.292969 121.71875 86.40625 C 123.59375 85.957031 125.839844 85.683594 128.28125 85.46875 C 129.433594 88.183594 130.9375 92.148438 131.25 95.46875 C 133.632812 93.867188 135.683594 88.886719 136.875 85 C 137.246094 85 137.578125 85 137.96875 85 C 139.082031 85 140.390625 85.15625 141.71875 85.3125 C 142.363281 88.085938 143.4375 92.441406 143.125 95.9375 C 145.722656 94.804688 148.300781 90.3125 150.15625 86.71875 C 151.855469 87.050781 153.632812 87.304688 155.46875 87.65625 C 155.898438 90.566406 156.152344 94.082031 155.78125 96.71875 C 158.105469 95.839844 160.664062 92.265625 162.65625 89.0625 C 164.941406 89.433594 167.304688 89.589844 169.6875 89.84375 C 170.15625 92.480469 170.527344 95.410156 170.3125 97.65625 C 172.460938 96.738281 174.765625 93.457031 176.5625 90.3125 C 179.199219 90.351562 181.835938 90.175781 184.53125 89.84375 C 185.761719 92.246094 187.03125 95.117188 187.5 97.34375 C 189.238281 95.859375 190.46875 92.070312 191.25 88.59375 C 193.808594 87.929688 196.40625 87.089844 198.90625 85.9375 C 200.957031 87.871094 203.261719 90.253906 204.53125 92.34375 C 205.761719 90.234375 205.625 86.035156 205.15625 82.34375 C 208.125 80.3125 211.035156 77.871094 213.75 74.84375 C 214.882812 73.574219 215.3125 71.796875 214.84375 70.15625 C 213.867188 66.875 211.582031 63.613281 207.5 60.3125 C 203.808594 57.324219 198.300781 55.214844 191.71875 55.3125 C 180.019531 46.71875 168.671875 43.710938 152.5 45 C 148.203125 40.507812 143.125 37.636719 137.65625 36.40625 C 131.367188 35 124.746094 35 117.5 35 C 114.609375 35 111.679688 35.234375 108.75 35.625 C 103.730469 27.734375 94.765625 22.65625 88.90625 20.3125 C 83.359375 18.105469 78.300781 18.203125 74.375 17.5 C 70.449219 16.796875 67.734375 15.820312 64.53125 11.5625 C 63.515625 10.175781 61.875 9.414062 60.15625 9.53125 C 60 9.53125 59.84375 9.53125 59.6875 9.53125 Z M 69.375 26.25 C 70.449219 26.582031 71.640625 27.167969 72.65625 27.34375 C 77.832031 28.28125 81.972656 28.261719 85.15625 29.53125 C 87.949219 30.644531 93.457031 34.257812 97.34375 37.8125 C 94.179688 38.613281 91.113281 39.667969 88.125 40.625 C 86.503906 38.867188 83.652344 36.386719 79.53125 35 C 74.804688 33.417969 72.324219 31.894531 70.3125 29.21875 C 69.921875 28.691406 69.746094 26.914062 69.375 26.25 Z M 24.21875 34.6875 C 26.386719 35.449219 28.59375 36.601562 30.625 36.875 C 37.871094 37.871094 44.042969 37.773438 45.3125 38.4375 C 49.492188 40.605469 63.808594 59.785156 83.4375 52.65625 C 93.964844 48.828125 107.03125 45 117.5 45 C 124.746094 45 130.800781 45.039062 135.46875 46.09375 C 140.136719 47.148438 143.496094 48.90625 146.71875 52.96875 C 147.773438 54.296875 149.414062 55 151.09375 54.84375 C 168.28125 53.066406 175.546875 54.882812 187.1875 63.90625 C 188.203125 64.726562 189.492188 65.117188 190.78125 65 C 195.546875 64.550781 198.769531 66.113281 201.25 68.125 C 202.539062 69.160156 202.597656 69.609375 203.28125 70.625 C 193.90625 79.316406 183.789062 81.035156 172.8125 80.15625 C 160.703125 79.179688 148.613281 75 137.96875 75 C 128.691406 75 120.351562 75.234375 113.4375 78.59375 C 106.523438 81.953125 102.03125 89.414062 102.03125 99.375 C 102.03125 109.511719 106.972656 116.738281 113.75 120 C 120.527344 123.261719 128.378906 123.378906 135.625 122.65625 C 143.574219 121.855469 152.519531 118.398438 160.9375 115.3125 C 169.355469 112.226562 177.578125 109.53125 180.78125 109.53125 C 187.597656 109.53125 191.386719 111.386719 193.59375 112.96875 C 194.902344 113.90625 194.824219 114.101562 195.15625 114.53125 C 194.84375 117.402344 193.339844 122.65625 190.9375 127.65625 C 190.878906 127.773438 190.839844 127.851562 190.78125 127.96875 C 190.15625 126.269531 189.492188 124.589844 188.28125 123.125 C 186.757812 121.289062 184.21875 119.53125 181.25 119.53125 C 176.269531 119.53125 172.207031 120.742188 169.0625 122.96875 C 165.917969 125.195312 163.886719 128.203125 162.34375 130.9375 C 160.507812 134.179688 158.886719 137.050781 157.03125 139.6875 C 156.464844 138.554688 156.445312 137.070312 155.625 136.09375 C 154.277344 134.472656 152.382812 132.890625 149.84375 132.5 C 147.304688 132.109375 144.628906 132.96875 142.65625 134.375 C 140 136.269531 138.710938 139.101562 137.8125 141.5625 C 136.914062 144.023438 136.347656 146.425781 135.625 148.90625 C 135.097656 150.722656 134.238281 152.558594 133.4375 154.375 C 132.773438 152.871094 132.167969 151.25 130.78125 150 C 128.847656 148.261719 126.113281 147.207031 123.28125 147.1875 C 120.15625 147.167969 117.363281 148.828125 115.625 150.78125 C 113.886719 152.734375 112.929688 154.921875 112.1875 157.1875 C 110.722656 161.71875 110.214844 166.621094 110.3125 170.3125 C 110.488281 177.011719 113.59375 182.65625 116.40625 186.875 C 117.5 188.515625 117.65625 188.554688 118.59375 189.6875 L 110.9375 195.3125 C 109.863281 196.152344 109.160156 197.382812 109.003906 198.730469 C 108.867188 200.097656 109.277344 201.464844 110.15625 202.5 L 118.75 212.65625 L 110.3125 217.1875 C 108.925781 217.949219 107.96875 219.316406 107.753906 220.898438 C 107.539062 222.460938 108.085938 224.042969 109.21875 225.15625 L 114.0625 230 C 107.636719 230.175781 98.90625 230.058594 89.0625 229.0625 C 69.121094 227.050781 45.449219 221.113281 30.15625 206.875 C 23.4375 200.625 15.507812 190.390625 12.34375 186.40625 C 15.839844 183.847656 22.167969 179.296875 29.375 174.6875 C 30.976562 173.671875 31.855469 171.835938 31.660156 169.941406 C 31.464844 168.046875 30.214844 166.445312 28.4375 165.78125 C 27.265625 165.351562 24.375 163.925781 21.875 162.5 C 26.582031 159.785156 32.265625 156.835938 40.3125 150.3125 C 41.796875 149.0625 42.421875 147.070312 41.914062 145.195312 C 41.425781 143.320312 39.882812 141.894531 37.96875 141.5625 C 36.699219 141.328125 33.417969 139.53125 30.625 137.8125 C 35.214844 135.097656 41.679688 131.484375 51.5625 124.375 C 53.300781 123.144531 54.042969 120.9375 53.457031 118.90625 C 52.851562 116.855469 51.035156 115.410156 48.90625 115.3125 C 46.953125 115.234375 42.890625 113.828125 39.375 112.5 C 45.078125 109.394531 50.878906 106.601562 57.8125 101.40625 C 59.6875 100.097656 60.429688 97.675781 59.609375 95.546875 C 58.808594 93.398438 56.640625 92.089844 54.375 92.34375 C 54.375 92.34375 52.832031 92.207031 51.09375 91.40625 C 49.355469 90.605469 47.363281 89.414062 45.46875 88.125 C 45.039062 87.832031 45.097656 87.792969 44.6875 87.5 C 47.871094 85.957031 49.316406 85.429688 54.0625 82.96875 C 58.300781 80.761719 62.617188 78.398438 66.09375 76.25 C 67.832031 75.175781 69.316406 74.140625 70.625 73.125 C 71.933594 72.109375 73.183594 71.464844 74.21875 68.90625 C 74.84375 67.363281 74.648438 65.605469 73.710938 64.21875 C 72.773438 62.832031 71.210938 62.011719 69.53125 62.03125 C 63.613281 62.03125 60.039062 61.230469 57.8125 60.15625 C 55.585938 59.082031 54.433594 57.851562 53.125 56.09375 C 51.816406 54.335938 50.644531 51.933594 48.28125 49.53125 C 45.917969 47.128906 42.285156 45.058594 37.65625 44.375 C 31.777344 43.496094 28.476562 42.050781 25.625 38.59375 C 25.058594 37.910156 24.765625 35.585938 24.21875 34.6875 Z M 123.59375 55.625 C 118.925781 55.878906 118.066406 56.914062 111.09375 57.03125 C 113.710938 61.523438 123.535156 71.933594 136.875 62.65625 C 136.875 62.65625 134.511719 56.015625 129.84375 55.78125 C 127.109375 55.644531 125.15625 55.546875 123.59375 55.625 Z M 232.03125 55.625 C 232.03125 55.625 234.140625 60.214844 235 65 C 235.429688 67.363281 235.644531 69.746094 235 71.5625 C 235 71.5625 230.488281 65.859375 223.75 64.6875 C 243.789062 90.117188 190.3125 95.15625 190.3125 95.15625 L 215.15625 95.15625 C 239.375 95.15625 245 84.804688 245 77.1875 C 245 63.476562 232.03125 55.625 232.03125 55.625 Z M 232.03125 55.625 "/>
</g>
</svg>
